<svg width="136" height="110" viewBox="0 0 136 110" fill="none" xmlns="http://www.w3.org/2000/svg">
<g clip-path="url(#clip0_503_7546)">
<path d="M36.125 14.1667V3.54169H43.2083V14.1667H53.8333V21.25H43.2083V31.875H36.125V21.25H25.5V14.1667H36.125ZM46.75 35.4167V24.7917H57.375V14.1667H82.1667L88.6479 21.25H99.875C103.771 21.25 106.958 24.4375 106.958 28.3334V70.8334C106.958 74.7292 103.771 77.9167 99.875 77.9167H43.2083C39.3125 77.9167 36.125 74.7292 36.125 70.8334V35.4167H46.75ZM71.5417 67.2917C81.3167 67.2917 89.25 59.3584 89.25 49.5834C89.25 39.8084 81.3167 31.875 71.5417 31.875C61.7667 31.875 53.8333 39.8084 53.8333 49.5834C53.8333 59.3584 61.7667 67.2917 71.5417 67.2917ZM60.2083 49.5834C60.2083 55.8521 65.2729 60.9167 71.5417 60.9167C77.8104 60.9167 82.875 55.8521 82.875 49.5834C82.875 43.3146 77.8104 38.25 71.5417 38.25C65.2729 38.25 60.2083 43.3146 60.2083 49.5834Z" fill="#2762B3" fill-opacity="0.2"/>
</g>
<path d="M18.0638 106.21C17.3731 106.21 16.7711 106.11 16.2578 105.909C15.7491 105.704 15.3268 105.438 14.9908 105.111C14.6594 104.78 14.4074 104.425 14.2348 104.047L15.3408 103.361C15.4528 103.655 15.6254 103.928 15.8588 104.18C16.0968 104.432 16.4001 104.635 16.7688 104.789C17.1421 104.943 17.5901 105.02 18.1128 105.02C18.6448 105.02 19.0904 104.938 19.4498 104.775C19.8091 104.607 20.0774 104.381 20.2548 104.096C20.4368 103.807 20.5278 103.475 20.5278 103.102C20.5278 102.677 20.4228 102.351 20.2128 102.122C20.0028 101.889 19.7204 101.725 19.3658 101.632C19.0158 101.534 18.6284 101.478 18.2038 101.464C17.8724 101.45 17.6344 101.441 17.4898 101.436C17.3451 101.431 17.2471 101.429 17.1958 101.429C17.1491 101.429 17.1048 101.429 17.0628 101.429V100.239C17.1048 100.239 17.1934 100.239 17.3288 100.239C17.4641 100.239 17.6064 100.239 17.7558 100.239C17.9051 100.234 18.0241 100.23 18.1128 100.225C18.7381 100.192 19.2351 100.034 19.6038 99.749C19.9724 99.4597 20.1568 99.063 20.1568 98.559C20.1568 98.0363 19.9678 97.628 19.5898 97.334C19.2164 97.04 18.7288 96.893 18.1268 96.893C17.5574 96.893 17.0721 97.026 16.6708 97.292C16.2741 97.558 15.9568 97.901 15.7188 98.321L14.7598 97.502C15.0864 96.984 15.5391 96.557 16.1178 96.221C16.7011 95.8803 17.3824 95.71 18.1618 95.71C18.5911 95.71 19.0041 95.7683 19.4008 95.885C19.8021 95.997 20.1568 96.1697 20.4648 96.403C20.7774 96.6317 21.0248 96.9233 21.2068 97.278C21.3888 97.628 21.4798 98.0433 21.4798 98.524C21.4798 99.042 21.3701 99.5017 21.1508 99.903C20.9314 100.304 20.6444 100.615 20.2898 100.834C20.7798 100.997 21.1624 101.268 21.4378 101.646C21.7131 102.024 21.8508 102.514 21.8508 103.116C21.8508 103.746 21.6898 104.292 21.3678 104.754C21.0504 105.216 20.6071 105.575 20.0378 105.832C19.4684 106.084 18.8104 106.21 18.0638 106.21ZM25.7534 106.21C25.1887 106.21 24.715 106.107 24.3324 105.902C23.9544 105.692 23.6674 105.417 23.4714 105.076C23.28 104.735 23.1844 104.362 23.1844 103.956C23.1844 103.559 23.259 103.216 23.4084 102.927C23.5624 102.633 23.777 102.39 24.0524 102.199C24.3277 102.003 24.6567 101.849 25.0394 101.737C25.3987 101.639 25.8 101.555 26.2434 101.485C26.6914 101.41 27.144 101.343 27.6014 101.282C28.0587 101.221 28.4857 101.163 28.8824 101.107L28.4344 101.366C28.4484 100.694 28.313 100.197 28.0284 99.875C27.7484 99.553 27.263 99.392 26.5724 99.392C26.115 99.392 25.7137 99.497 25.3684 99.707C25.0277 99.9123 24.7874 100.248 24.6474 100.715L23.4644 100.358C23.6464 99.6953 23.9987 99.175 24.5214 98.797C25.044 98.419 25.7324 98.23 26.5864 98.23C27.2724 98.23 27.8604 98.3537 28.3504 98.601C28.845 98.8437 29.1997 99.2123 29.4144 99.707C29.5217 99.9403 29.5894 100.195 29.6174 100.47C29.6454 100.741 29.6594 101.025 29.6594 101.324V106H28.5534V104.187L28.8124 104.355C28.5277 104.966 28.1287 105.428 27.6154 105.741C27.1067 106.054 26.486 106.21 25.7534 106.21ZM25.9424 105.167C26.3904 105.167 26.7777 105.088 27.1044 104.929C27.4357 104.766 27.7017 104.553 27.9024 104.292C28.103 104.026 28.2337 103.737 28.2944 103.424C28.3644 103.191 28.4017 102.932 28.4064 102.647C28.4157 102.358 28.4204 102.136 28.4204 101.982L28.8544 102.171C28.4484 102.227 28.0494 102.281 27.6574 102.332C27.2654 102.383 26.8944 102.439 26.5444 102.5C26.1944 102.556 25.8794 102.624 25.5994 102.703C25.394 102.768 25.2004 102.852 25.0184 102.955C24.841 103.058 24.6964 103.191 24.5844 103.354C24.477 103.513 24.4234 103.711 24.4234 103.949C24.4234 104.154 24.4747 104.35 24.5774 104.537C24.6847 104.724 24.848 104.875 25.0674 104.992C25.2914 105.109 25.583 105.167 25.9424 105.167ZM31.7594 106V98.44H37.0094V99.623H33.0054V106H31.7594ZM42.0875 106.21C41.3782 106.21 40.7809 106.035 40.2955 105.685C39.8102 105.33 39.4415 104.852 39.1895 104.25C38.9422 103.643 38.8185 102.964 38.8185 102.213C38.8185 101.452 38.9422 100.771 39.1895 100.169C39.4415 99.567 39.8102 99.0933 40.2955 98.748C40.7855 98.4027 41.3852 98.23 42.0945 98.23C42.7945 98.23 43.3965 98.405 43.9005 98.755C44.4092 99.1003 44.7989 99.574 45.0695 100.176C45.3402 100.778 45.4755 101.457 45.4755 102.213C45.4755 102.969 45.3402 103.648 45.0695 104.25C44.7989 104.852 44.4092 105.33 43.9005 105.685C43.3965 106.035 42.7922 106.21 42.0875 106.21ZM38.6085 109.36V98.44H39.7215V104.005H39.8615V109.36H38.6085ZM41.9335 105.069C42.4329 105.069 42.8459 104.943 43.1725 104.691C43.4992 104.439 43.7442 104.098 43.9075 103.669C44.0709 103.235 44.1525 102.75 44.1525 102.213C44.1525 101.681 44.0709 101.2 43.9075 100.771C43.7489 100.342 43.5015 100.001 43.1655 99.749C42.8342 99.497 42.4119 99.371 41.8985 99.371C41.4085 99.371 41.0025 99.4923 40.6805 99.735C40.3585 99.973 40.1182 100.307 39.9595 100.736C39.8009 101.161 39.7215 101.653 39.7215 102.213C39.7215 102.764 39.7985 103.256 39.9525 103.69C40.1112 104.119 40.3539 104.458 40.6805 104.705C41.0072 104.948 41.4249 105.069 41.9335 105.069ZM48.0666 109.36L49.5296 105.384L49.5506 106.56L46.2466 98.44H47.5556L50.1456 104.971H49.6976L52.1266 98.44H53.3936L49.2776 109.36H48.0666ZM57.5388 106.21C56.7922 106.21 56.1318 106.049 55.5578 105.727C54.9838 105.4 54.5312 104.952 54.1998 104.383L55.1938 103.739C55.4692 104.154 55.7982 104.474 56.1808 104.698C56.5635 104.917 56.9998 105.027 57.4898 105.027C58.0032 105.027 58.4115 104.91 58.7148 104.677C59.0182 104.439 59.1698 104.119 59.1698 103.718C59.1698 103.419 59.0952 103.191 58.9458 103.032C58.7965 102.873 58.5818 102.764 58.3018 102.703C58.0218 102.642 57.6882 102.612 57.3008 102.612H56.5168V101.583H57.2938C57.7838 101.583 58.1828 101.504 58.4908 101.345C58.7988 101.186 58.9528 100.916 58.9528 100.533C58.9528 100.141 58.8082 99.8563 58.5188 99.679C58.2342 99.497 57.8935 99.406 57.4968 99.406C57.0768 99.406 56.6755 99.4947 56.2928 99.672C55.9102 99.8447 55.5812 100.064 55.3058 100.33L54.5498 99.483C54.9418 99.0817 55.3922 98.7737 55.9008 98.559C56.4142 98.3397 56.9718 98.23 57.5738 98.23C58.0592 98.23 58.5025 98.3163 58.9038 98.489C59.3098 98.657 59.6318 98.9067 59.8698 99.238C60.1125 99.5647 60.2338 99.9637 60.2338 100.435C60.2338 100.836 60.1405 101.193 59.9538 101.506C59.7672 101.819 59.4918 102.092 59.1278 102.325L59.0788 101.884C59.3868 101.959 59.6412 102.096 59.8418 102.297C60.0472 102.493 60.1988 102.726 60.2968 102.997C60.3948 103.268 60.4438 103.55 60.4438 103.844C60.4438 104.339 60.3132 104.763 60.0518 105.118C59.7952 105.468 59.4475 105.739 59.0088 105.93C58.5702 106.117 58.0802 106.21 57.5388 106.21ZM68.4482 98.44V106H67.2442V100.428L63.2822 106H62.2532V98.44H63.4572V103.935L67.4262 98.44H68.4482ZM72.6907 106V99.574H70.0587V98.44H76.5687V99.574H73.9367V106H72.6907ZM78.1738 106L78.1668 98.44H79.4198V101.177H81.0508C81.2701 101.177 81.4941 101.182 81.7228 101.191C81.9514 101.2 82.1498 101.221 82.3178 101.254C82.7098 101.329 83.0528 101.459 83.3468 101.646C83.6408 101.833 83.8694 102.087 84.0328 102.409C84.1961 102.726 84.2778 103.121 84.2778 103.592C84.2778 104.245 84.1074 104.763 83.7668 105.146C83.4308 105.524 82.9898 105.776 82.4438 105.902C82.2571 105.944 82.0424 105.972 81.7998 105.986C81.5618 105.995 81.3354 106 81.1208 106H78.1738ZM79.4198 104.971H81.1418C81.2818 104.971 81.4381 104.966 81.6108 104.957C81.7834 104.948 81.9374 104.924 82.0728 104.887C82.3108 104.817 82.5231 104.679 82.7098 104.474C82.9011 104.269 82.9968 103.975 82.9968 103.592C82.9968 103.205 82.9034 102.906 82.7168 102.696C82.5348 102.486 82.2944 102.348 81.9958 102.283C81.8604 102.25 81.7181 102.229 81.5688 102.22C81.4194 102.211 81.2771 102.206 81.1418 102.206H79.4198V104.971ZM92.7491 109.15V106.14C92.0117 106.257 91.3397 106.177 90.7331 105.902C90.1311 105.622 89.6504 105.172 89.2911 104.551C88.9364 103.926 88.7591 103.151 88.7591 102.227C88.7591 101.298 88.9364 100.521 89.2911 99.896C89.6504 99.2707 90.1311 98.8203 90.7331 98.545C91.3397 98.265 92.0117 98.1833 92.7491 98.3V95.997H93.8831V98.3C94.6204 98.1833 95.2901 98.265 95.8921 98.545C96.4987 98.8203 96.9794 99.2707 97.3341 99.896C97.6934 100.521 97.8731 101.298 97.8731 102.227C97.8731 103.151 97.6934 103.926 97.3341 104.551C96.9794 105.172 96.4987 105.622 95.8921 105.902C95.2901 106.177 94.6204 106.257 93.8831 106.14V109.15H92.7491ZM92.7491 104.999V99.448C92.3711 99.3827 92.0187 99.3943 91.6921 99.483C91.3654 99.567 91.0784 99.7257 90.8311 99.959C90.5837 100.192 90.3901 100.498 90.2501 100.876C90.1101 101.254 90.0401 101.704 90.0401 102.227C90.0401 102.745 90.1101 103.193 90.2501 103.571C90.3947 103.949 90.5907 104.255 90.8381 104.488C91.0901 104.717 91.3794 104.875 91.7061 104.964C92.0327 105.048 92.3804 105.06 92.7491 104.999ZM93.8831 104.999C94.2517 105.06 94.5994 105.048 94.9261 104.964C95.2527 104.88 95.5421 104.724 95.7941 104.495C96.0461 104.262 96.2421 103.956 96.3821 103.578C96.5221 103.2 96.5921 102.75 96.5921 102.227C96.5921 101.7 96.5221 101.247 96.3821 100.869C96.2467 100.491 96.0554 100.185 95.8081 99.952C95.5607 99.7187 95.2714 99.56 94.9401 99.476C94.6134 99.392 94.2611 99.3827 93.8831 99.448V104.999ZM102.919 106.21C102.168 106.21 101.519 106.04 100.973 105.699C100.432 105.358 100.014 104.887 99.7203 104.285C99.4263 103.683 99.2793 102.992 99.2793 102.213C99.2793 101.42 99.4286 100.724 99.7273 100.127C100.026 99.5297 100.448 99.0653 100.994 98.734C101.54 98.398 102.182 98.23 102.919 98.23C103.675 98.23 104.326 98.4003 104.872 98.741C105.418 99.077 105.836 99.546 106.125 100.148C106.419 100.745 106.566 101.434 106.566 102.213C106.566 103.002 106.419 103.697 106.125 104.299C105.831 104.896 105.411 105.365 104.865 105.706C104.319 106.042 103.671 106.21 102.919 106.21ZM102.919 105.027C103.703 105.027 104.287 104.766 104.669 104.243C105.052 103.72 105.243 103.044 105.243 102.213C105.243 101.359 105.05 100.68 104.662 100.176C104.275 99.6673 103.694 99.413 102.919 99.413C102.392 99.413 101.958 99.532 101.617 99.77C101.277 100.008 101.022 100.337 100.854 100.757C100.686 101.177 100.602 101.662 100.602 102.213C100.602 103.062 100.798 103.744 101.19 104.257C101.582 104.77 102.159 105.027 102.919 105.027ZM110.225 106V99.574H107.593V98.44H114.103V99.574H111.471V106H110.225ZM118.792 106.21C118.04 106.21 117.392 106.04 116.846 105.699C116.304 105.358 115.887 104.887 115.593 104.285C115.299 103.683 115.152 102.992 115.152 102.213C115.152 101.42 115.301 100.724 115.6 100.127C115.898 99.5297 116.321 99.0653 116.867 98.734C117.413 98.398 118.054 98.23 118.792 98.23C119.548 98.23 120.199 98.4003 120.745 98.741C121.291 99.077 121.708 99.546 121.998 100.148C122.292 100.745 122.439 101.434 122.439 102.213C122.439 103.002 122.292 103.697 121.998 104.299C121.704 104.896 121.284 105.365 120.738 105.706C120.192 106.042 119.543 106.21 118.792 106.21ZM118.792 105.027C119.576 105.027 120.159 104.766 120.542 104.243C120.924 103.72 121.116 103.044 121.116 102.213C121.116 101.359 120.922 100.68 120.535 100.176C120.147 99.6673 119.566 99.413 118.792 99.413C118.264 99.413 117.83 99.532 117.49 99.77C117.149 100.008 116.895 100.337 116.727 100.757C116.559 101.177 116.475 101.662 116.475 102.213C116.475 103.062 116.671 103.744 117.063 104.257C117.455 104.77 118.031 105.027 118.792 105.027Z" fill="#2762B3"/>
<defs>
<clipPath id="clip0_503_7546">
<rect width="85" height="85" fill="white" transform="translate(25.5)"/>
</clipPath>
</defs>
</svg>
