<svg width="30" height="29" viewBox="0 0 30 29" fill="none" xmlns="http://www.w3.org/2000/svg">
<rect width="30" height="29" rx="6" fill="white"/>
<mask id="mask0_5003_5963" style="mask-type:alpha" maskUnits="userSpaceOnUse" x="6" y="5" width="18" height="19">
<rect x="6" y="23.5" width="18" height="18" transform="rotate(-90 6 23.5)" fill="#D9D9D9"/>
</mask>
<g mask="url(#mask0_5003_5963)">
<path d="M17.0076 14.5001C17.0076 14.5904 16.9932 14.6746 16.9643 14.7524C16.9354 14.8303 16.8859 14.9044 16.8158 14.9746L13.4451 18.3453C13.3413 18.4491 13.2107 18.5022 13.0534 18.5047C12.8963 18.5071 12.7634 18.4539 12.6546 18.3453C12.546 18.2366 12.4917 18.1048 12.4917 17.9501C12.4917 17.7953 12.546 17.6636 12.6546 17.5548L15.7096 14.5001L12.6546 11.4453C12.5509 11.3414 12.4978 11.2109 12.4953 11.0536C12.4929 10.8965 12.546 10.7636 12.6546 10.6548C12.7634 10.5462 12.8951 10.4919 13.0499 10.4919C13.2046 10.4919 13.3364 10.5462 13.4451 10.6548L16.8158 14.0255C16.8859 14.0957 16.9354 14.1698 16.9643 14.2477C16.9932 14.3256 17.0076 14.4097 17.0076 14.5001Z" fill="#0D2443"/>
</g>
</svg>
