<svg width="12" height="14" viewBox="0 0 12 14" fill="none" xmlns="http://www.w3.org/2000/svg">
<path d="M5.91976 6.74385C6.84622 6.74385 7.64848 6.41154 8.30399 5.75592C8.9595 5.10044 9.29178 4.29839 9.29178 3.37183C9.29178 2.44553 8.9595 1.64341 8.30388 0.98768C7.64826 0.33228 6.84611 0 5.91976 0C4.99317 0 4.1911 0.33228 3.53561 0.987789C2.88013 1.6433 2.54772 2.44545 2.54772 3.37183C2.54772 4.29839 2.88011 5.10055 3.53572 5.75606C4.19134 6.41146 4.9935 6.74385 5.91976 6.74385ZM11.8199 10.7653C11.801 10.4925 11.7627 10.1949 11.7064 9.88068C11.6496 9.56407 11.5765 9.26479 11.4889 8.99125C11.3984 8.70851 11.2754 8.42934 11.1233 8.16175C10.9654 7.88405 10.78 7.64222 10.5719 7.44324C10.3543 7.23507 10.0879 7.0677 9.77989 6.94559C9.47293 6.82418 9.13272 6.76266 8.76883 6.76266C8.62591 6.76266 8.48771 6.82128 8.22078 6.99508C8.03104 7.11863 7.84074 7.24131 7.64988 7.36312C7.46648 7.47999 7.21804 7.58947 6.91116 7.6886C6.61177 7.78547 6.3078 7.83461 6.00775 7.83461C5.70774 7.83461 5.40384 7.78547 5.10413 7.6886C4.79761 7.58956 4.54916 7.4801 4.36596 7.36323C4.1535 7.22747 3.96127 7.10358 3.79453 6.99494C3.52793 6.82117 3.3896 6.76252 3.2467 6.76252C2.88268 6.76252 2.5426 6.82415 2.23573 6.94572C1.92789 7.06759 1.6614 7.23496 1.44361 7.44335C1.23566 7.64244 1.05013 7.88413 0.892469 8.16175C0.740493 8.42931 0.617446 8.7084 0.526857 8.99136C0.439357 9.2649 0.366213 9.56407 0.309393 9.88068C0.253092 10.1945 0.214866 10.4922 0.195944 10.7656C0.177121 11.0408 0.167791 11.3165 0.167971 11.5923C0.167971 12.3231 0.400283 12.9147 0.858398 13.3511C1.31085 13.7816 1.90952 14.0001 2.63754 14.0001H9.37862C10.1066 14.0001 10.7051 13.7817 11.1577 13.3511C11.6159 12.9151 11.8482 12.3233 11.8482 11.5922C11.8481 11.3101 11.8386 11.0319 11.8199 10.7653Z" fill="#2762B3" fill-opacity="0.5"/>
</svg>
