<svg width="16" height="17" viewBox="0 0 16 17" fill="none" xmlns="http://www.w3.org/2000/svg">
<path d="M14.67 6.04C14.528 5.86046 14.3471 5.71544 14.141 5.61585C13.9349 5.51626 13.7089 5.46468 13.48 5.465H13.1995L13.35 4.6155C13.3618 4.55069 13.3606 4.48418 13.3465 4.41984C13.3324 4.35549 13.3056 4.29458 13.2678 4.24064C13.23 4.18669 13.1819 4.14078 13.1262 4.10557C13.0705 4.07036 13.0084 4.04654 12.9435 4.0355L9.196 3.381C9.13142 3.36956 9.06521 3.37097 9.00117 3.38514C8.93714 3.39931 8.87652 3.42596 8.82279 3.46358C8.76906 3.50119 8.72327 3.54903 8.68805 3.60435C8.65282 3.65968 8.62885 3.72141 8.6175 3.786L8.318 5.465H7.8085L8.125 3.7C8.14715 3.57074 8.19468 3.44714 8.26484 3.33634C8.335 3.22554 8.4264 3.12972 8.53378 3.05442C8.64115 2.97912 8.76237 2.92582 8.89045 2.8976C9.01853 2.86938 9.15092 2.8668 9.28 2.89L11.275 3.24L11.04 1.915C11.0287 1.85023 11.0047 1.78832 10.9694 1.73285C10.9341 1.67738 10.8882 1.62944 10.8343 1.5918C10.7804 1.55415 10.7196 1.52754 10.6553 1.51351C10.5911 1.49947 10.5247 1.49828 10.46 1.51L5.44 2.385C5.305 2.41 5.19 2.48 5.115 2.59C5.04 2.7 5.01 2.835 5.03 2.965L5.4675 5.465H4.47L4.04 3.6C3.99 3.375 3.79 3.215 3.555 3.215H1.5C1.225 3.215 1 3.44 1 3.715C1 3.99 1.225 4.215 1.5 4.215H3.155L4.725 11.015C4.80149 11.3508 4.99043 11.6504 5.26052 11.8641C5.5306 12.0778 5.86561 12.1928 6.21 12.19H12.625C13.34 12.19 13.95 11.71 14.11 11.015L14.96 7.32C15.065 6.87 14.96 6.4 14.67 6.04ZM11.735 10.27H7.245C6.97 10.27 6.745 10.045 6.745 9.77C6.745 9.49 6.97 9.27 7.245 9.27H11.735C12.015 9.27 12.235 9.49 12.235 9.77C12.235 10.045 12.015 10.27 11.735 10.27ZM12.86 8.24H6.12C5.845 8.24 5.62 8.015 5.62 7.74C5.62 7.46 5.845 7.24 6.12 7.24H12.86C13.135 7.24 13.36 7.46 13.36 7.74C13.36 8.015 13.135 8.24 12.86 8.24ZM6.4225 12.977C6.08769 12.977 5.76654 13.1097 5.52942 13.3461C5.2923 13.5825 5.15856 13.9032 5.1575 14.238C5.1575 14.934 5.725 15.4995 6.4225 15.4995C7.12 15.4995 7.6875 14.9335 7.6875 14.238C7.68644 13.9032 7.5527 13.5825 7.31558 13.3461C7.07846 13.1097 6.75731 12.977 6.4225 12.977ZM12.4115 12.977C12.0767 12.9769 11.7554 13.1096 11.5183 13.346C11.2811 13.5823 11.1474 13.9032 11.1465 14.238C11.1465 14.934 11.714 15.4995 12.4115 15.4995C13.109 15.4995 13.6765 14.9335 13.6765 14.238C13.6757 13.9031 13.542 13.5822 13.3049 13.3458C13.0677 13.1094 12.7464 12.9767 12.4115 12.977Z" fill="#6A6A6A"/>
</svg>
