<svg width="24" height="24" viewBox="0 0 24 24" fill="none" xmlns="http://www.w3.org/2000/svg">
<g clip-path="url(#clip0_5004_5191)">
<path d="M5.94605 23.1713H17.7379C19.8075 23.1713 21.4911 21.4877 21.4911 19.4181V8.19848C21.4911 7.83248 21.1917 7.53303 20.8257 7.53303H16.8329V6.53484C16.8329 3.78318 14.5937 1.54391 11.842 1.54391C9.09033 1.54391 6.85107 3.78318 6.85107 6.53484V7.53303H2.85833C2.49233 7.53303 2.19287 7.83248 2.19287 8.19848V19.4181C2.19287 21.4877 3.87648 23.1713 5.94605 23.1713ZM8.18198 6.53484C8.18198 4.51518 9.82233 2.87483 11.842 2.87483C13.8617 2.87483 15.502 4.51518 15.502 6.53484V7.53303H8.18198V6.53484ZM3.52378 8.86394H6.85107V10.5276C6.85107 10.8936 7.15052 11.193 7.51653 11.193C7.88253 11.193 8.18198 10.8936 8.18198 10.5276V8.86394H15.502V10.5276C15.502 10.8936 15.8015 11.193 16.1675 11.193C16.5335 11.193 16.8329 10.8936 16.8329 10.5276V8.86394H20.1602V19.4181C20.1602 20.7523 19.0722 21.8403 17.7379 21.8403H5.94605C4.61181 21.8403 3.52378 20.7523 3.52378 19.4181V8.86394Z" fill="white"/>
</g>
<defs>
<clipPath id="clip0_5004_5191">
<rect width="23.1579" height="23.1579" fill="white" transform="translate(0.263184 0.578949)"/>
</clipPath>
</defs>
</svg>
