<svg width="16" height="16" viewBox="0 0 16 16" fill="none" xmlns="http://www.w3.org/2000/svg">
<path d="M14.9648 2.73484L13.286 1.05604C13.1626 0.932602 13.0161 0.834684 12.8549 0.767878C12.6936 0.701072 12.5208 0.666687 12.3463 0.666687C12.1718 0.666687 11.9989 0.701072 11.8377 0.767878C11.6765 0.834684 11.53 0.932602 11.4066 1.05604L9.72724 2.73484C9.60381 2.85822 9.50589 3.00471 9.43908 3.16594C9.37228 3.32718 9.33789 3.49999 9.33789 3.67451C9.33789 3.84904 9.37228 4.02185 9.43908 4.18308C9.50589 4.34431 9.60381 4.4908 9.72724 4.61418L11.406 6.29299C11.5294 6.41642 11.6759 6.51434 11.8371 6.58115C11.9984 6.64795 12.1712 6.68234 12.3457 6.68234C12.5202 6.68234 12.6931 6.64795 12.8543 6.58115C13.0155 6.51434 13.162 6.41642 13.2854 6.29299L14.9642 4.61418C15.2134 4.36501 15.3535 4.02705 15.3536 3.67463C15.3537 3.32221 15.2138 2.98417 14.9648 2.73484ZM12.8544 4.99886C12.8544 5.13369 12.8008 5.263 12.7055 5.35835C12.6101 5.45369 12.4808 5.50725 12.346 5.50725C12.2112 5.50725 12.0819 5.45369 11.9865 5.35835C11.8912 5.263 11.8376 5.13369 11.8376 4.99886V4.89718C11.8376 4.76235 11.8912 4.63304 11.9865 4.5377C12.0819 4.44236 12.2112 4.3888 12.346 4.3888C12.4808 4.3888 12.6101 4.44236 12.7055 4.5377C12.8008 4.63304 12.8544 4.76235 12.8544 4.89718V4.99886ZM12.8544 3.55504C12.8544 3.68988 12.8008 3.81919 12.7055 3.91453C12.6101 4.00987 12.4808 4.06343 12.346 4.06343C12.2112 4.06343 12.0819 4.00987 11.9865 3.91453C11.8912 3.81919 11.8376 3.68988 11.8376 3.55504V2.35017C11.8376 2.21533 11.8912 2.08602 11.9865 1.99068C12.0819 1.89534 12.2112 1.84178 12.346 1.84178C12.4808 1.84178 12.6101 1.89534 12.7055 1.99068C12.8008 2.08602 12.8544 2.21533 12.8544 2.35017V3.55504Z" fill="#6A6A6A"/>
<path d="M12.3458 7.53007C12.0599 7.53078 11.7766 7.47479 11.5124 7.36532C11.2481 7.25586 11.0083 7.09509 10.8066 6.89233L9.12776 5.21295C8.87736 4.96402 8.69184 4.65747 8.58744 4.32017C8.48305 3.98287 8.46298 3.62512 8.52899 3.27826H2.43456C1.96494 3.27946 1.51498 3.46697 1.18348 3.79963C0.851989 4.13229 0.666054 4.5829 0.666505 5.05253V11.3C0.666505 12.2716 1.46298 13.0681 2.43456 13.0681H5.11207L6.50731 14.4803C6.7502 14.7288 7.16256 14.7288 7.40546 14.4803L8.8007 13.0681H11.4726C12.4554 13.0681 13.2463 12.2773 13.2463 11.3V7.32897C12.9642 7.46025 12.657 7.52886 12.3458 7.53007ZM4.24724 8.92418C4.04979 8.92418 3.86042 8.84574 3.7208 8.70612C3.58118 8.5665 3.50274 8.37713 3.50274 8.17968C3.50274 7.98222 3.58118 7.79285 3.7208 7.65323C3.86042 7.51361 4.04979 7.43517 4.24724 7.43517C4.4447 7.43517 4.63407 7.51361 4.77369 7.65323C4.91331 7.79285 4.99175 7.98222 4.99175 8.17968C4.99175 8.37713 4.91331 8.5665 4.77369 8.70612C4.63407 8.84574 4.4447 8.92418 4.24724 8.92418ZM6.95356 8.92418C6.7561 8.92418 6.56674 8.84574 6.42711 8.70612C6.28749 8.5665 6.20905 8.37713 6.20905 8.17968C6.20905 7.98222 6.28749 7.79285 6.42711 7.65323C6.56674 7.51361 6.7561 7.43517 6.95356 7.43517C7.15101 7.43517 7.34038 7.51361 7.48 7.65323C7.61962 7.79285 7.69806 7.98222 7.69806 8.17968C7.69806 8.37713 7.61962 8.5665 7.48 8.70612C7.34038 8.84574 7.15101 8.92418 6.95356 8.92418ZM9.65931 8.92418C9.46185 8.92418 9.27248 8.84574 9.13286 8.70612C8.99324 8.5665 8.9148 8.37713 8.9148 8.17968C8.9148 7.98222 8.99324 7.79285 9.13286 7.65323C9.27248 7.51361 9.46185 7.43517 9.65931 7.43517C9.85676 7.43517 10.0461 7.51361 10.1858 7.65323C10.3254 7.79285 10.4038 7.98222 10.4038 8.17968C10.4038 8.37713 10.3254 8.5665 10.1858 8.70612C10.0461 8.84574 9.85676 8.92418 9.65931 8.92418Z" fill="#6A6A6A"/>
</svg>
