<svg width="20" height="20" viewBox="0 0 20 20" fill="none" xmlns="http://www.w3.org/2000/svg">
<mask id="mask0_974_16720" style="mask-type:alpha" maskUnits="userSpaceOnUse" x="0" y="0" width="20" height="20">
<rect width="20" height="20" fill="#D9D9D9"/>
</mask>
<g mask="url(#mask0_974_16720)">
<path d="M4.42443 17.9167C4.00345 17.9167 3.64714 17.7708 3.35547 17.4792C3.0638 17.1875 2.91797 16.8312 2.91797 16.4102V5.25646C2.91797 4.83548 3.0638 4.47916 3.35547 4.1875C3.64714 3.89583 4.00345 3.75 4.42443 3.75H5.57818V2.62812C5.57818 2.44548 5.63936 2.29298 5.76172 2.17062C5.88408 2.0484 6.03658 1.98729 6.21922 1.98729C6.402 1.98729 6.5545 2.0484 6.67672 2.17062C6.79908 2.29298 6.86026 2.44548 6.86026 2.62812V3.75H13.1744V2.61229C13.1744 2.43493 13.2342 2.28639 13.3538 2.16666C13.4735 2.04708 13.6221 1.98729 13.7994 1.98729C13.9768 1.98729 14.1253 2.04708 14.2448 2.16666C14.3646 2.28639 14.4244 2.43493 14.4244 2.61229V3.75H15.5782C15.9992 3.75 16.3555 3.89583 16.6471 4.1875C16.9388 4.47916 17.0846 4.83548 17.0846 5.25646V8.85104C17.0846 9.0284 17.0248 9.17687 16.9051 9.29645C16.7855 9.41618 16.637 9.47604 16.4596 9.47604C16.2823 9.47604 16.1338 9.41618 16.0142 9.29645C15.8945 9.17687 15.8346 9.0284 15.8346 8.85104V8.58979H4.16797V16.4102C4.16797 16.4744 4.19471 16.5331 4.24818 16.5865C4.30151 16.6399 4.36026 16.6667 4.42443 16.6667H9.31214C9.4895 16.6667 9.63804 16.7265 9.75776 16.8462C9.87734 16.9658 9.93714 17.1143 9.93714 17.2917C9.93714 17.469 9.87734 17.6175 9.75776 17.7371C9.63804 17.8568 9.4895 17.9167 9.31214 17.9167H4.42443ZM4.16797 7.33979H15.8346V5.25646C15.8346 5.19229 15.8079 5.13354 15.7544 5.08021C15.7011 5.02673 15.6423 5 15.5782 5H4.42443C4.36026 5 4.30151 5.02673 4.24818 5.08021C4.19471 5.13354 4.16797 5.19229 4.16797 5.25646V7.33979ZM11.7642 17.1633V16.0287C11.7642 15.9283 11.7823 15.8328 11.8186 15.7421C11.855 15.6512 11.9121 15.5668 11.9901 15.4887L16.2882 11.2115C16.3918 11.1078 16.5039 11.0349 16.6246 10.9927C16.7453 10.9506 16.8661 10.9296 16.9869 10.9296C17.1161 10.9296 17.2424 10.9541 17.3659 11.0031C17.4892 11.0523 17.6001 11.126 17.6984 11.2244L18.4692 12.0031C18.5589 12.1069 18.6284 12.2191 18.6776 12.3398C18.7267 12.4605 18.7513 12.5812 18.7513 12.7019C18.7513 12.8226 18.7289 12.9454 18.684 13.0704C18.6392 13.1954 18.5676 13.3097 18.4692 13.4133L14.1919 17.6906C14.114 17.7687 14.0296 17.8258 13.9388 17.8621C13.848 17.8985 13.7523 17.9167 13.6519 17.9167H12.5173C12.3026 17.9167 12.1234 17.8448 11.9796 17.701C11.836 17.5574 11.7642 17.3782 11.7642 17.1633ZM12.7578 16.9231H13.5494L16.2544 14.205L15.8715 13.8092L15.4836 13.4183L12.7578 16.1315V16.9231ZM15.8715 13.8092L15.4836 13.4183L16.2544 14.205L15.8715 13.8092Z" fill="#55627A"/>
</g>
</svg>
