<svg width="13" height="12" viewBox="0 0 13 12" fill="none" xmlns="http://www.w3.org/2000/svg">
<path d="M8.72294 0H3.67404C3.55929 -5.75483e-08 3.44566 0.0226164 3.33966 0.0665565C3.23365 0.110497 3.13735 0.174899 3.05624 0.256081C2.97514 0.337263 2.91084 0.433634 2.867 0.539684C2.82317 0.645734 2.80067 0.759383 2.80078 0.874134V11.1267C2.80078 11.6086 3.19084 12 3.67404 12H8.72294C8.95451 11.9999 9.17656 11.9078 9.3403 11.7441C9.50405 11.5804 9.59609 11.3583 9.5962 11.1267V0.874134C9.5962 0.642451 9.50423 0.420244 9.34049 0.256337C9.17674 0.0924302 8.95463 0.000231799 8.72294 0ZM4.95267 0.530865H7.44519C7.50816 0.530865 7.55933 0.624882 7.55933 0.7412C7.55933 0.857518 7.50816 0.951971 7.44519 0.951971H4.95267C4.88926 0.951971 4.83897 0.857518 4.83897 0.7412C4.83897 0.624882 4.88926 0.530865 4.95267 0.530865ZM6.19893 11.1372C6.05106 11.1372 5.90925 11.0785 5.80469 10.9739C5.70013 10.8694 5.64139 10.7276 5.64139 10.5797C5.64139 10.4318 5.70013 10.29 5.80469 10.1855C5.90925 10.0809 6.05106 10.0222 6.19893 10.0222C6.3468 10.0222 6.48861 10.0809 6.59317 10.1855C6.69773 10.29 6.75647 10.4318 6.75647 10.5797C6.75647 10.7276 6.69773 10.8694 6.59317 10.9739C6.48861 11.0785 6.3468 11.1372 6.19893 11.1372ZM8.94202 9.22673H3.4554V1.47497H8.94202V9.22673Z" fill="#6A6A6A"/>
</svg>
