<svg width="24" height="24" viewBox="0 0 24 24" fill="none" xmlns="http://www.w3.org/2000/svg">
<path d="M23.5202 17.4867L15.112 2.92303C13.7386 0.517153 10.2657 0.517153 8.89725 2.92303L0.484103 17.4867C-0.88927 19.8926 0.820036 22.8814 3.59148 22.8814H20.3832C23.1546 22.8814 24.8936 19.8629 23.5202 17.4867ZM11.9997 19.6505C11.2685 19.6505 10.6609 19.0429 10.6609 18.3117C10.6609 17.5806 11.2685 16.9729 11.9997 16.9729C12.7308 16.9729 13.3385 17.5806 13.3088 18.3463C13.3434 19.0429 12.7012 19.6505 11.9997 19.6505ZM13.2199 10.9953C13.1606 12.0327 13.0964 13.0652 13.0371 14.1027C13.0075 14.4386 13.0075 14.7449 13.0075 15.0759C12.9779 15.6243 12.5481 16.0491 11.9997 16.0491C11.4513 16.0491 11.0265 15.6539 10.9919 15.1055C10.903 13.4901 10.8091 11.9043 10.7202 10.2889C10.6905 9.864 10.6609 9.4342 10.6263 9.00934C10.6263 8.30784 11.0215 7.72983 11.6638 7.54705C12.306 7.3939 12.9433 7.70019 13.2199 8.30784C13.3138 8.52026 13.3434 8.73269 13.3434 8.9797C13.3138 9.65651 13.2496 10.3284 13.2199 10.9953Z" fill="#FF6B35"/>
</svg>
