<svg width="16" height="15" viewBox="0 0 16 15" fill="none" xmlns="http://www.w3.org/2000/svg">
<path d="M8.00042 14.4123C7.77893 14.4123 7.56547 14.3321 7.39907 14.1864C6.77065 13.6369 6.16481 13.1205 5.63027 12.665L5.62753 12.6627C4.06037 11.3272 2.70707 10.1738 1.76548 9.0377C0.712929 7.76764 0.222656 6.56337 0.222656 5.2478C0.222656 3.96964 0.660945 2.79042 1.45668 1.92727C2.26192 1.05392 3.36682 0.57291 4.56821 0.57291C5.46614 0.57291 6.28846 0.856799 7.01231 1.41662C7.37759 1.69917 7.70869 2.045 8.00042 2.44838C8.29224 2.045 8.62325 1.69917 8.98865 1.41662C9.7125 0.856799 10.5348 0.57291 11.4328 0.57291C12.634 0.57291 13.739 1.05392 14.5443 1.92727C15.34 2.79042 15.7782 3.96964 15.7782 5.2478C15.7782 6.56334 15.288 7.76761 14.2355 9.03758C13.2939 10.1738 11.9407 11.327 10.3738 12.6624C9.83828 13.1186 9.23149 13.6358 8.60165 14.1866C8.43519 14.3322 8.22155 14.4124 8.00042 14.4123ZM4.56821 1.48412C3.62436 1.48412 2.7573 1.86083 2.12651 2.54488C1.48636 3.23929 1.13375 4.19917 1.13375 5.2478C1.13375 6.35425 1.54497 7.34379 2.467 8.45631C3.35816 9.53165 4.68369 10.6612 6.21846 11.9692L6.22129 11.9716C6.75783 12.4288 7.36608 12.9472 7.99911 13.5008C8.63595 12.9462 9.24513 12.4269 9.78274 11.969C11.3174 10.661 12.6428 9.53165 13.534 8.45631C14.4559 7.34379 14.8671 6.35425 14.8671 5.2478C14.8671 4.19914 14.5145 3.23925 13.8743 2.54488C13.2437 1.86083 12.3765 1.48412 11.4328 1.48412C10.7413 1.48412 10.1065 1.70394 9.54598 2.13733C9.04647 2.52376 8.6985 3.01224 8.49446 3.35404C8.38958 3.5298 8.20492 3.63471 8.00042 3.63471C7.79592 3.63471 7.61126 3.5298 7.50635 3.35404C7.30249 3.01224 6.95449 2.52376 6.45483 2.13733C5.89435 1.70394 5.25952 1.48412 4.56821 1.48412Z" fill="#2762B3" fill-opacity="0.2"/>
</svg>
