<svg width="117" height="32" viewBox="0 0 117 32" fill="none" xmlns="http://www.w3.org/2000/svg">
<path d="M3.016 13.996C3.968 13.5293 4.93867 13.1933 5.928 12.988C6.936 12.764 8.056 12.652 9.288 12.652C10.4827 12.652 11.472 12.7453 12.256 12.932C13.04 13.1187 13.6653 13.3893 14.132 13.744C14.5987 14.0987 14.9253 14.5187 15.112 15.004C15.2987 15.4893 15.392 16.04 15.392 16.656C15.392 17.0107 15.364 17.3933 15.308 17.804C15.2707 18.2147 15.224 18.56 15.168 18.84L13.852 25H9.344L8.84 23.208H8.672C8.07467 23.8613 7.37467 24.3653 6.572 24.72C5.788 25.056 5.004 25.224 4.22 25.224C3.772 25.224 3.33333 25.1587 2.904 25.028C2.47467 24.8973 2.092 24.7013 1.756 24.44C1.42 24.16 1.14933 23.8147 0.944 23.404C0.738667 22.9747 0.636 22.4613 0.636 21.864C0.636 20.8933 0.897333 20.128 1.42 19.568C1.96133 18.9893 2.66133 18.56 3.52 18.28C4.39733 17.9813 5.37733 17.7947 6.46 17.72C7.56133 17.6453 8.66267 17.608 9.764 17.608C9.80133 17.4213 9.848 17.16 9.904 16.824C9.96 16.4693 9.988 16.1613 9.988 15.9C9.988 15.564 9.89467 15.256 9.708 14.976C9.54 14.6773 9.176 14.528 8.616 14.528C7.96267 14.528 7.47733 14.724 7.16 15.116C6.86133 15.4893 6.66533 15.9467 6.572 16.488H2.484L3.016 13.996ZM9.456 18.924H8.952C8.41067 18.924 7.944 18.9987 7.552 19.148C7.17867 19.2787 6.87067 19.456 6.628 19.68C6.404 19.904 6.236 20.156 6.124 20.436C6.012 20.716 5.956 20.996 5.956 21.276C5.956 21.724 6.068 22.06 6.292 22.284C6.53467 22.508 6.81467 22.62 7.132 22.62C7.524 22.62 7.90667 22.48 8.28 22.2C8.672 21.92 8.91467 21.5467 9.008 21.08L9.456 18.924ZM26.8932 12.96H32.6052L30.0292 25H25.4932L24.9892 23.208H24.8212C24.3359 23.7867 23.6732 24.272 22.8332 24.664C22.0119 25.0373 21.1812 25.224 20.3412 25.224C19.2212 25.224 18.3439 24.944 17.7092 24.384C17.0746 23.8053 16.7572 23.0587 16.7572 22.144C16.7572 21.6773 16.8319 21.0987 16.9812 20.408C17.1492 19.6987 17.2986 19.036 17.4292 18.42L18.6052 12.96H24.2892L22.8892 19.512C22.8519 19.6613 22.8146 19.8387 22.7772 20.044C22.7399 20.2493 22.7026 20.4547 22.6652 20.66C22.6279 20.8467 22.5906 21.0333 22.5532 21.22C22.5346 21.388 22.5252 21.528 22.5252 21.64C22.5252 21.92 22.5812 22.1627 22.6932 22.368C22.8239 22.5547 23.0479 22.648 23.3652 22.648C23.7012 22.648 24.0186 22.536 24.3172 22.312C24.6159 22.088 24.8492 21.8733 25.0172 21.668L26.8932 12.96ZM34.1161 12.96C34.8068 12.8107 35.4135 12.6427 35.9361 12.456C36.4588 12.2693 36.9348 12.036 37.3641 11.756C37.8121 11.476 38.2321 11.1307 38.6241 10.72C39.0348 10.3093 39.4735 9.80533 39.9401 9.208H42.8241L42.0121 12.96H44.1961L43.8321 14.836H41.6201L40.4721 20.296C40.3788 20.7253 40.3041 21.108 40.2481 21.444C40.1921 21.78 40.1641 22.0413 40.1641 22.228C40.1641 22.6013 40.2948 22.8347 40.5561 22.928C40.8361 23.0213 41.3495 23.068 42.0961 23.068L41.6761 25C41.5455 25.0373 41.3401 25.0653 41.0601 25.084C40.7988 25.1027 40.5001 25.1213 40.1641 25.14C39.8468 25.1773 39.5108 25.196 39.1561 25.196C38.8201 25.2147 38.5215 25.224 38.2601 25.224C37.7935 25.224 37.3361 25.1867 36.8881 25.112C36.4401 25.056 36.0388 24.9347 35.6841 24.748C35.3295 24.5427 35.0401 24.2533 34.8161 23.88C34.6108 23.5067 34.5081 23.0027 34.5081 22.368C34.5081 22.144 34.5175 21.864 34.5361 21.528C34.5735 21.192 34.6388 20.8187 34.7321 20.408L35.9081 14.836H33.7241L34.1161 12.96ZM52.3669 12.652C54.5882 12.652 56.2029 13.044 57.2109 13.828C58.2749 14.6493 58.8069 16.012 58.8069 17.916C58.8069 19.092 58.6109 20.156 58.2189 21.108C57.8269 22.0413 57.2762 22.816 56.5669 23.432C55.1482 24.6267 53.0949 25.224 50.4069 25.224C48.1109 25.224 46.4682 24.7853 45.4789 23.908C44.4149 22.9933 43.8829 21.6213 43.8829 19.792C43.8829 18.5787 44.1255 17.4773 44.6109 16.488C45.1149 15.4987 45.8335 14.6773 46.7669 14.024C48.1295 13.1093 49.9962 12.652 52.3669 12.652ZM50.4629 23.32C50.9295 23.32 51.3309 23.0587 51.6669 22.536C52.0215 22.0133 52.3015 21.3787 52.5069 20.632C52.7122 19.8667 52.8615 19.0827 52.9549 18.28C53.0669 17.4587 53.1229 16.7493 53.1229 16.152C53.1229 15.6293 53.0669 15.2373 52.9549 14.976C52.8615 14.696 52.6469 14.556 52.3109 14.556C51.8069 14.556 51.3682 14.8267 50.9949 15.368C50.6402 15.9093 50.3509 16.5533 50.1269 17.3C49.9029 18.0467 49.7349 18.812 49.6229 19.596C49.5295 20.38 49.4829 21.0147 49.4829 21.5C49.4829 22.7133 49.8095 23.32 50.4629 23.32ZM65.0843 25H59.3723L63.3483 6.184H69.0883L65.0843 25ZM76.6755 12.652C78.8968 12.652 80.5115 13.044 81.5195 13.828C82.5835 14.6493 83.1155 16.012 83.1155 17.916C83.1155 19.092 82.9195 20.156 82.5275 21.108C82.1355 22.0413 81.5848 22.816 80.8755 23.432C79.4568 24.6267 77.4035 25.224 74.7155 25.224C72.4195 25.224 70.7768 24.7853 69.7875 23.908C68.7235 22.9933 68.1915 21.6213 68.1915 19.792C68.1915 18.5787 68.4341 17.4773 68.9195 16.488C69.4235 15.4987 70.1421 14.6773 71.0755 14.024C72.4381 13.1093 74.3048 12.652 76.6755 12.652ZM74.7715 23.32C75.2381 23.32 75.6395 23.0587 75.9755 22.536C76.3301 22.0133 76.6101 21.3787 76.8155 20.632C77.0208 19.8667 77.1701 19.0827 77.2635 18.28C77.3755 17.4587 77.4315 16.7493 77.4315 16.152C77.4315 15.6293 77.3755 15.2373 77.2635 14.976C77.1701 14.696 76.9555 14.556 76.6195 14.556C76.1155 14.556 75.6768 14.8267 75.3035 15.368C74.9488 15.9093 74.6595 16.5533 74.4355 17.3C74.2115 18.0467 74.0435 18.812 73.9315 19.596C73.8381 20.38 73.7915 21.0147 73.7915 21.5C73.7915 22.7133 74.1181 23.32 74.7715 23.32ZM95.3849 12.96H99.9209L97.6249 23.852C97.4569 24.692 97.1769 25.4667 96.7849 26.176C96.3929 26.8853 95.8423 27.5013 95.1329 28.024C94.4423 28.5467 93.5649 28.9573 92.5009 29.256C91.4556 29.5547 90.1769 29.704 88.6649 29.704C88.3849 29.704 88.0489 29.6947 87.6569 29.676C87.2649 29.676 86.8636 29.6667 86.4529 29.648C86.0423 29.648 85.6503 29.6387 85.2769 29.62C84.9036 29.6013 84.6049 29.5827 84.3809 29.564L84.9129 27.548C85.5103 27.6413 86.1169 27.688 86.7329 27.688C87.3676 27.7067 87.9089 27.716 88.3569 27.716C88.9169 27.716 89.3836 27.66 89.7569 27.548C90.1489 27.4547 90.4663 27.296 90.7089 27.072C90.9703 26.848 91.1756 26.5493 91.3249 26.176C91.4929 25.8027 91.6236 25.3453 91.7169 24.804L92.0529 22.984H91.8569C91.7449 23.152 91.5769 23.3573 91.3529 23.6C91.1476 23.824 90.8769 24.048 90.5409 24.272C90.2049 24.4773 89.8036 24.6547 89.3369 24.804C88.8889 24.9347 88.3756 25 87.7969 25C87.1436 25 86.5836 24.9067 86.1169 24.72C85.6689 24.5147 85.3049 24.244 85.0249 23.908C84.7449 23.5533 84.5396 23.1427 84.4089 22.676C84.2783 22.1907 84.2129 21.668 84.2129 21.108C84.2129 20.8653 84.2316 20.492 84.2689 19.988C84.3063 19.484 84.3903 18.9147 84.5209 18.28C84.6703 17.6453 84.8756 17.0013 85.1369 16.348C85.4169 15.676 85.7809 15.0693 86.2289 14.528C86.6956 13.9867 87.2649 13.5387 87.9369 13.184C88.6276 12.8293 89.4583 12.652 90.4289 12.652C90.7276 12.652 91.0543 12.68 91.4089 12.736C91.7636 12.792 92.1089 12.8947 92.4449 13.044C92.7809 13.1933 93.0796 13.408 93.3409 13.688C93.6023 13.968 93.8076 14.332 93.9569 14.78H94.1249L95.3849 12.96ZM92.2489 15.396C91.8009 15.396 91.4276 15.6387 91.1289 16.124C90.8303 16.5907 90.5876 17.1413 90.4009 17.776C90.2143 18.4107 90.0743 19.0453 89.9809 19.68C89.9063 20.296 89.8689 20.7533 89.8689 21.052C89.8689 21.4253 89.9249 21.7427 90.0369 22.004C90.1676 22.2467 90.3916 22.368 90.7089 22.368C90.8956 22.368 91.0729 22.3213 91.2409 22.228C91.4276 22.1347 91.5956 22.032 91.7449 21.92C91.9129 21.7893 92.0529 21.6587 92.1649 21.528C92.2956 21.3973 92.3889 21.2947 92.4449 21.22L93.4809 16.32C93.3316 16.1147 93.1543 15.9093 92.9489 15.704C92.7623 15.4987 92.5289 15.396 92.2489 15.396ZM108.968 12.652C111.19 12.652 112.804 13.044 113.812 13.828C114.876 14.6493 115.408 16.012 115.408 17.916C115.408 19.092 115.212 20.156 114.82 21.108C114.428 22.0413 113.878 22.816 113.168 23.432C111.75 24.6267 109.696 25.224 107.008 25.224C104.712 25.224 103.07 24.7853 102.08 23.908C101.016 22.9933 100.484 21.6213 100.484 19.792C100.484 18.5787 100.727 17.4773 101.212 16.488C101.716 15.4987 102.435 14.6773 103.368 14.024C104.731 13.1093 106.598 12.652 108.968 12.652ZM107.064 23.32C107.531 23.32 107.932 23.0587 108.268 22.536C108.623 22.0133 108.903 21.3787 109.108 20.632C109.314 19.8667 109.463 19.0827 109.556 18.28C109.668 17.4587 109.724 16.7493 109.724 16.152C109.724 15.6293 109.668 15.2373 109.556 14.976C109.463 14.696 109.248 14.556 108.912 14.556C108.408 14.556 107.97 14.8267 107.596 15.368C107.242 15.9093 106.952 16.5533 106.728 17.3C106.504 18.0467 106.336 18.812 106.224 19.596C106.131 20.38 106.084 21.0147 106.084 21.5C106.084 22.7133 106.411 23.32 107.064 23.32Z" fill="white"/>
</svg>
