<svg width="14" height="12" viewBox="0 0 14 12" fill="none" xmlns="http://www.w3.org/2000/svg">
<path d="M8.17001 7.57754C7.82171 7.80974 7.41713 7.93249 7 7.93249C6.5829 7.93249 6.17832 7.80974 5.83002 7.57754L0.0932148 3.75289C0.0615454 3.73171 0.0304621 3.70967 0 3.6868L0 9.9539C0 10.6724 0.583105 11.2427 1.28879 11.2427H12.7112C13.4297 11.2427 14 10.6596 14 9.9539V3.68677C13.9695 3.70971 13.9383 3.73179 13.9066 3.75299L8.17001 7.57754Z" fill="#2762B3" fill-opacity="0.5"/>
<path d="M0.548243 3.07039L6.28504 6.89507C6.50221 7.03985 6.75109 7.11223 6.99997 7.11223C7.24888 7.11223 7.49779 7.03982 7.71496 6.89507L13.4518 3.07039C13.7951 2.84166 14 2.45884 14 2.04568C14 1.33526 13.422 0.757324 12.7116 0.757324H1.28836C0.577966 0.757352 6.78154e-07 1.33529 6.78154e-07 2.04636C-0.000212291 2.24904 0.0497391 2.44861 0.1454 2.62729C0.24106 2.80597 0.379456 2.95819 0.548243 3.07039Z" fill="#2762B3" fill-opacity="0.5"/>
</svg>
