<svg width="8" height="14" viewBox="0 0 8 14" fill="none" xmlns="http://www.w3.org/2000/svg">
<path d="M6.94435 0H1.05396C0.920083 -6.71397e-08 0.787519 0.0263858 0.663845 0.0776493C0.540172 0.128913 0.427814 0.204048 0.333196 0.298761C0.238578 0.393474 0.163555 0.505906 0.112415 0.629631C0.0612757 0.753356 0.0350227 0.885947 0.0351568 1.01982V12.9812C0.0351568 13.5434 0.490225 14 1.05396 14H6.94435C7.21451 13.9999 7.47357 13.8925 7.6646 13.7014C7.85563 13.5104 7.96302 13.2514 7.96315 12.9812V1.01982C7.96315 0.749526 7.85585 0.490285 7.66481 0.29906C7.47378 0.107835 7.21464 0.000270433 6.94435 0ZM2.54569 0.619343H5.45364C5.5271 0.619343 5.58679 0.729028 5.58679 0.864733C5.58679 1.00044 5.5271 1.11063 5.45364 1.11063H2.54569C2.47171 1.11063 2.41304 1.00044 2.41304 0.864733C2.41304 0.729028 2.47171 0.619343 2.54569 0.619343ZM3.99966 12.9934C3.82715 12.9934 3.6617 12.9249 3.53972 12.8029C3.41773 12.6809 3.3492 12.5155 3.3492 12.343C3.3492 12.1705 3.41773 12.005 3.53972 11.883C3.6617 11.761 3.82715 11.6925 3.99966 11.6925C4.17218 11.6925 4.33762 11.761 4.45961 11.883C4.5816 12.005 4.65013 12.1705 4.65013 12.343C4.65013 12.5155 4.5816 12.6809 4.45961 12.8029C4.33762 12.9249 4.17218 12.9934 3.99966 12.9934ZM7.19994 10.7645H0.798876V1.72079H7.19994V10.7645Z" fill="#2762B3" fill-opacity="0.5"/>
</svg>
