<svg width="20" height="23" viewBox="0 0 20 23" fill="none" xmlns="http://www.w3.org/2000/svg">
<path fill-rule="evenodd" clip-rule="evenodd" d="M8.28131 3.125C5.03486 3.83855 2.6057 6.73232 2.6057 10.193V13.4187C2.60576 13.8622 2.51844 14.3014 2.34874 14.7111C2.17904 15.1209 1.93028 15.4932 1.61666 15.8068L0.534514 16.889C0.331685 17.0912 0.193467 17.3491 0.137379 17.63C0.0812907 17.9109 0.109858 18.2021 0.219459 18.4667C0.329061 18.7313 0.514762 18.9575 0.753023 19.1164C0.991285 19.2754 1.27138 19.3601 1.5578 19.3596H6.4996C6.73407 20.9957 8.14236 22.2544 9.84254 22.2544C11.5427 22.2544 12.951 20.9957 13.1855 19.3596H18.1273C18.4135 19.3596 18.6933 19.2747 18.9312 19.1156C19.1692 18.9566 19.3547 18.7306 19.4642 18.4661C19.5737 18.2017 19.6024 17.9107 19.5465 17.63C19.4907 17.3493 19.3529 17.0914 19.1506 16.889L18.0684 15.8068C17.7548 15.4932 17.506 15.1209 17.3363 14.7111C17.1666 14.3014 17.0793 13.8622 17.0794 13.4187V10.193C17.0793 8.54477 16.5166 6.94596 15.4844 5.661C14.4521 4.37603 13.0122 3.48189 11.4028 3.12645C11.612 2.83854 11.7376 2.49839 11.7656 2.1436C11.7936 1.78881 11.7229 1.43318 11.5615 1.11602C11.4 0.798849 11.154 0.532492 10.8507 0.346379C10.5473 0.160265 10.1984 0.0616397 9.84254 0.0614014C9.4868 0.0616554 9.13806 0.160208 8.8348 0.346178C8.53155 0.532149 8.28558 0.798303 8.12406 1.11526C7.96254 1.43221 7.89174 1.78763 7.91949 2.14229C7.94724 2.49694 8.07246 2.83702 8.28131 3.125ZM7.47851 19.3596C7.70236 20.4601 8.67644 21.2895 9.84254 21.2895C11.0086 21.2895 11.9827 20.4601 12.2066 19.3596H7.47851ZM16.1145 10.193V13.4187C16.1145 13.9889 16.2268 14.5535 16.445 15.0803C16.6632 15.6072 16.983 16.0858 17.3862 16.489L18.4684 17.5712C18.5358 17.6387 18.5818 17.7246 18.6004 17.8182C18.619 17.9118 18.6094 18.0088 18.5729 18.0969C18.5364 18.185 18.4746 18.2604 18.3953 18.3134C18.3159 18.3664 18.2227 18.3947 18.1273 18.3947H1.5578C1.4624 18.3947 1.36914 18.3664 1.28982 18.3134C1.2105 18.2604 1.14868 18.185 1.11217 18.0969C1.07566 18.0088 1.06611 17.9118 1.08471 17.8182C1.10332 17.7246 1.14925 17.6387 1.21671 17.5712L2.29886 16.489C2.70206 16.0858 3.02189 15.6072 3.2401 15.0803C3.45831 14.5535 3.57062 13.9889 3.57061 13.4187V10.193C3.57061 6.72895 6.3785 3.92105 9.84254 3.92105C11.506 3.92105 13.1012 4.58184 14.2775 5.75806C15.4537 6.93427 16.1145 8.52956 16.1145 10.193ZM9.84254 1.02631C9.96929 1.02635 10.0948 1.05134 10.2119 1.09987C10.329 1.14841 10.4353 1.21953 10.5249 1.30917C10.6145 1.39882 10.6856 1.50523 10.7341 1.62234C10.7826 1.73945 10.8075 1.86496 10.8075 1.99171C10.8074 2.11845 10.7824 2.24395 10.7339 2.36104C10.6854 2.47812 10.6142 2.5845 10.5246 2.6741C10.4349 2.7637 10.3285 2.83477 10.2114 2.88325C10.0943 2.93172 9.9688 2.95665 9.84206 2.95662C9.58608 2.95656 9.34062 2.85481 9.15966 2.67376C8.97871 2.49272 8.87708 2.2472 8.87715 1.99123C8.87721 1.73525 8.97896 1.48979 9.16 1.30883C9.34105 1.12787 9.58657 1.02625 9.84254 1.02631Z" fill="white"/>
</svg>
