<svg width="16" height="17" viewBox="0 0 16 17" fill="none" xmlns="http://www.w3.org/2000/svg">
<g clip-path="url(#clip0_5083_11957)">
<mask id="mask0_5083_11957" style="mask-type:alpha" maskUnits="userSpaceOnUse" x="0" y="0" width="16" height="17">
<rect y="0.5" width="16" height="16" fill="#D9D9D9"/>
</mask>
<g mask="url(#mask0_5083_11957)">
<path d="M8.00196 10.8847C8.7574 10.8847 9.39902 10.6203 9.92679 10.0915C10.4546 9.56272 10.7185 8.92061 10.7185 8.16517C10.7185 7.40972 10.4541 6.76811 9.92529 6.24033C9.39651 5.71256 8.7544 5.44867 7.99896 5.44867C7.24351 5.44867 6.6019 5.71306 6.07413 6.24183C5.54635 6.77061 5.28246 7.41272 5.28246 8.16817C5.28246 8.92361 5.54685 9.56522 6.07563 10.093C6.6044 10.6208 7.24651 10.8847 8.00196 10.8847ZM8.00046 9.96667C7.50046 9.96667 7.07546 9.79167 6.72546 9.44167C6.37546 9.09167 6.20046 8.66667 6.20046 8.16667C6.20046 7.66667 6.37546 7.24167 6.72546 6.89167C7.07546 6.54167 7.50046 6.36667 8.00046 6.36667C8.50046 6.36667 8.92546 6.54167 9.27546 6.89167C9.62546 7.24167 9.80046 7.66667 9.80046 8.16667C9.80046 8.66667 9.62546 9.09167 9.27546 9.44167C8.92546 9.79167 8.50046 9.96667 8.00046 9.96667ZM8.00046 12.8333C6.59701 12.8333 5.31346 12.4589 4.14979 11.7102C2.98613 10.9615 2.05729 9.9765 1.36329 8.75517C1.30774 8.65939 1.26712 8.56289 1.24146 8.46567C1.2159 8.36844 1.20312 8.26867 1.20312 8.16633C1.20312 8.064 1.2159 7.96433 1.24146 7.86733C1.26712 7.77033 1.30774 7.67394 1.36329 7.57817C2.05729 6.35683 2.98613 5.37183 4.14979 4.62317C5.31346 3.87439 6.59701 3.5 8.00046 3.5C9.4039 3.5 10.6875 3.87439 11.8511 4.62317C13.0148 5.37183 13.9436 6.35683 14.6376 7.57817C14.6932 7.67394 14.7338 7.77044 14.7595 7.86767C14.785 7.96489 14.7978 8.06467 14.7978 8.167C14.7978 8.26933 14.785 8.369 14.7595 8.466C14.7338 8.563 14.6932 8.65939 14.6376 8.75517C13.9436 9.9765 13.0148 10.9615 11.8511 11.7102C10.6875 12.4589 9.4039 12.8333 8.00046 12.8333Z" fill="#6A6A6A"/>
</g>
</g>
<defs>
<clipPath id="clip0_5083_11957">
<rect width="16" height="16" fill="white" transform="translate(0 0.5)"/>
</clipPath>
</defs>
</svg>
