<svg width="8" height="5" viewBox="0 0 8 5" fill="none" xmlns="http://www.w3.org/2000/svg">
<path d="M3.66661 4.78467C3.58627 4.78467 3.5115 4.77184 3.44227 4.74617C3.37305 4.72051 3.30722 4.67651 3.24477 4.61417L0.248607 1.61801C0.156385 1.52567 0.109163 1.40962 0.10694 1.26984C0.104829 1.13017 0.152051 1.01201 0.248607 0.915341C0.345274 0.818786 0.462385 0.770508 0.59994 0.770508C0.737496 0.770508 0.854607 0.818786 0.951273 0.915341L3.66661 3.63084L6.38194 0.915341C6.47427 0.823119 6.59033 0.775897 6.73011 0.773675C6.86977 0.771563 6.98794 0.818786 7.08461 0.915341C7.18116 1.01201 7.22944 1.12912 7.22944 1.26667C7.22944 1.40423 7.18116 1.52134 7.08461 1.61801L4.08844 4.61417C4.026 4.67651 3.96016 4.72051 3.89094 4.74617C3.82172 4.77184 3.74694 4.78467 3.66661 4.78467Z" fill="white"/>
</svg>
