<svg width="16" height="20" viewBox="0 0 16 20" fill="none" xmlns="http://www.w3.org/2000/svg">
<path d="M7.88976 9.65403C9.14108 9.65403 10.2245 9.2052 11.11 8.31968C11.9952 7.43436 12.4442 6.35107 12.4442 5.0996C12.4442 3.84851 11.9954 2.76511 11.1099 1.87945C10.2244 0.994235 9.14093 0.545441 7.88976 0.545441C6.63825 0.545441 5.55493 0.994235 4.66961 1.8796C3.78428 2.76496 3.3353 3.84839 3.3353 5.0996C3.3353 6.35107 3.78424 7.4345 4.66964 8.31987C5.55527 9.20508 6.6387 9.65403 7.88972 9.65403H7.88976ZM5.45326 2.66311C6.13258 1.98375 6.92953 1.65354 7.88976 1.65354C8.84984 1.65354 9.6469 1.98375 10.3264 2.66311C11.0057 3.34258 11.3361 4.13964 11.3361 5.09957C11.3361 6.05979 11.0057 6.85674 10.3264 7.53621C9.6469 8.21572 8.84984 8.54593 7.88976 8.54593C6.92979 8.54593 6.13292 8.21557 5.45326 7.53621C4.77375 6.85689 4.4434 6.05983 4.4434 5.0996C4.4434 4.13964 4.77375 3.34258 5.45326 2.66311ZM15.8588 15.0856C15.8332 14.7171 15.7816 14.3152 15.7056 13.8908C15.6288 13.4632 15.53 13.0589 15.4117 12.6895C15.2894 12.3076 15.1233 11.9305 14.9177 11.5691C14.7046 11.194 14.4542 10.8674 14.1732 10.5987C13.8793 10.3175 13.5195 10.0914 13.1035 9.92651C12.6889 9.76253 12.2294 9.67944 11.7379 9.67944C11.5448 9.67944 11.3582 9.75862 10.9976 9.99336C10.7414 10.1602 10.4843 10.3259 10.2265 10.4905C9.97884 10.6483 9.64328 10.7962 9.22879 10.9301C8.82443 11.0609 8.41386 11.1273 8.00846 11.1273C7.60339 11.1273 7.19278 11.0609 6.78812 10.9301C6.37412 10.7963 6.03841 10.6485 5.79111 10.4906C5.50415 10.3072 5.24452 10.1399 5.01931 9.99317C4.65908 9.75847 4.47239 9.67925 4.27939 9.67925C3.78771 9.67925 3.32839 9.7625 2.91391 9.92669C2.49813 10.0913 2.13819 10.3174 1.84403 10.5988C1.56302 10.8677 1.31259 11.1942 1.09964 11.5691C0.894371 11.9305 0.728178 12.3075 0.605823 12.6896C0.487641 13.0591 0.388849 13.4632 0.312105 13.8908C0.235915 14.3146 0.184432 14.7167 0.158875 15.086C0.133761 15.4471 0.121094 15.8229 0.121094 16.2026C0.121094 17.1897 0.434866 17.9887 1.05362 18.5781C1.66473 19.1597 2.4732 19.4545 3.45662 19.4545H12.5615C13.5446 19.4545 14.3531 19.1596 14.9643 18.5781C15.5832 17.9892 15.897 17.1898 15.897 16.2025C15.8969 15.8215 15.884 15.4457 15.8588 15.0856ZM14.2003 17.7752C13.7965 18.1596 13.2604 18.3464 12.5613 18.3464H3.45666C2.75743 18.3464 2.22133 18.1596 1.81766 17.7754C1.42168 17.3984 1.22923 16.8839 1.22923 16.2026C1.22923 15.8483 1.2409 15.4985 1.26432 15.1626C1.28707 14.8331 1.33367 14.4711 1.40281 14.0865C1.47102 13.7067 1.55785 13.3502 1.66115 13.0275C1.76027 12.718 1.89544 12.4116 2.06308 12.1165C2.22306 11.8351 2.40713 11.5938 2.61026 11.3993C2.80027 11.2174 3.03977 11.0686 3.32193 10.9569C3.58289 10.8536 3.8762 10.797 4.19459 10.7885C4.23337 10.8092 4.30251 10.8485 4.41445 10.9215C4.64224 11.07 4.90479 11.2394 5.19507 11.4247C5.52229 11.6333 5.94379 11.8217 6.44743 11.9843C6.96229 12.1508 7.48743 12.2353 8.00864 12.2353C8.5299 12.2353 9.05514 12.1508 9.56975 11.9845C10.0738 11.8216 10.4952 11.6333 10.8228 11.4244C11.1199 11.2346 11.3751 11.0701 11.6028 10.9215C11.7148 10.8487 11.7839 10.8091 11.8227 10.7885C12.1413 10.797 12.4345 10.8536 12.6957 10.9569C12.9777 11.0686 13.2172 11.2176 13.4072 11.3993C13.6103 11.5936 13.7944 11.835 13.9544 12.1166C14.1221 12.4116 14.2575 12.7182 14.3564 13.0274C14.4599 13.3505 14.5469 13.7068 14.615 14.0864C14.6839 14.4717 14.7307 14.8339 14.7535 15.1628V15.1631C14.777 15.4976 14.7888 15.8473 14.7889 16.2026C14.7888 16.884 14.5963 17.3985 14.2004 17.7752H14.2003Z" fill="white"/>
</svg>
