<svg width="24" height="24" viewBox="0 0 24 24" fill="none" xmlns="http://www.w3.org/2000/svg">
<path opacity="0.4" d="M13.1066 22H10.8946C7.44765 22 5.72465 22 4.54965 20.988C3.37465 19.976 3.13065 18.283 2.64365 14.895L2.36465 12.958C1.98465 10.321 1.79465 9.002 2.33565 7.875C2.87665 6.748 4.02665 6.062 6.32765 4.692L7.71265 3.867C9.80065 2.622 10.8466 2 12.0006 2C13.1546 2 14.1996 2.622 16.2886 3.867L17.6736 4.692C19.9736 6.062 21.1246 6.748 21.6656 7.875C22.2066 9.002 22.0156 10.321 21.6356 12.958L21.3576 14.895C20.8706 18.283 20.6266 19.976 19.4516 20.988C18.2766 22 16.5536 22 13.1066 22Z" fill="#2762B3" fill-opacity="0.5"/>
<path fill-rule="evenodd" clip-rule="evenodd" d="M12 18.75C11.8011 18.75 11.6103 18.671 11.4697 18.5303C11.329 18.3897 11.25 18.1989 11.25 18V15C11.25 14.8011 11.329 14.6103 11.4697 14.4697C11.6103 14.329 11.8011 14.25 12 14.25C12.1989 14.25 12.3897 14.329 12.5303 14.4697C12.671 14.6103 12.75 14.8011 12.75 15V18C12.75 18.1989 12.671 18.3897 12.5303 18.5303C12.3897 18.671 12.1989 18.75 12 18.75Z" fill="#2762B3" fill-opacity="0.5"/>
</svg>
