<svg width="17" height="16" viewBox="0 0 17 16" fill="none" xmlns="http://www.w3.org/2000/svg">
<path d="M15.3651 2.73482L13.6863 1.05602C13.563 0.932581 13.4165 0.834663 13.2552 0.767857C13.094 0.701051 12.9212 0.666666 12.7467 0.666666C12.5721 0.666666 12.3993 0.701051 12.2381 0.767857C12.0769 0.834663 11.9304 0.932581 11.807 1.05602L10.1276 2.73482C10.0042 2.8582 9.90628 3.00469 9.83947 3.16592C9.77267 3.32715 9.73828 3.49997 9.73828 3.67449C9.73828 3.84902 9.77267 4.02183 9.83947 4.18306C9.90628 4.34429 10.0042 4.49078 10.1276 4.61416L11.8064 6.29297C11.9298 6.4164 12.0763 6.51432 12.2375 6.58113C12.3988 6.64793 12.5716 6.68232 12.7461 6.68232C12.9206 6.68232 13.0934 6.64793 13.2547 6.58113C13.4159 6.51432 13.5624 6.4164 13.6858 6.29297L15.3646 4.61416C15.6138 4.36499 15.7539 4.02703 15.754 3.67461C15.7541 3.32219 15.6142 2.98415 15.3651 2.73482ZM13.2548 4.99884C13.2548 5.13367 13.2012 5.26298 13.1059 5.35832C13.0105 5.45367 12.8812 5.50723 12.7464 5.50723C12.6116 5.50723 12.4822 5.45367 12.3869 5.35832C12.2916 5.26298 12.238 5.13367 12.238 4.99884V4.89716C12.238 4.76233 12.2916 4.63302 12.3869 4.53768C12.4822 4.44234 12.6116 4.38878 12.7464 4.38878C12.8812 4.38878 13.0105 4.44234 13.1059 4.53768C13.2012 4.63302 13.2548 4.76233 13.2548 4.89716V4.99884ZM13.2548 3.55502C13.2548 3.68985 13.2012 3.81916 13.1059 3.91451C13.0105 4.00985 12.8812 4.06341 12.7464 4.06341C12.6116 4.06341 12.4822 4.00985 12.3869 3.91451C12.2916 3.81916 12.238 3.68985 12.238 3.55502V2.35014C12.238 2.21531 12.2916 2.086 12.3869 1.99066C12.4822 1.89532 12.6116 1.84176 12.7464 1.84176C12.8812 1.84176 13.0105 1.89532 13.1059 1.99066C13.2012 2.086 13.2548 2.21531 13.2548 2.35014V3.55502Z" fill="#6A6A6A"/>
<path d="M12.7458 7.53008C12.4598 7.53079 12.1765 7.4748 11.9123 7.36533C11.648 7.25586 11.4082 7.0951 11.2065 6.89233L9.52766 5.21296C9.27726 4.96403 9.09174 4.65748 8.98735 4.32018C8.88296 3.98288 8.86289 3.62513 8.9289 3.27827H2.83446C2.36484 3.27946 1.91488 3.46698 1.58339 3.79964C1.25189 4.1323 1.06596 4.58291 1.06641 5.05254V11.3C1.06641 12.2716 1.86288 13.0681 2.83446 13.0681H5.51197L6.90721 14.4803C7.15011 14.7288 7.56246 14.7288 7.80536 14.4803L9.2006 13.0681H11.8725C12.8553 13.0681 13.6462 12.2773 13.6462 11.3V7.32898C13.3641 7.46026 13.0569 7.52887 12.7458 7.53008ZM4.64715 8.92419C4.44969 8.92419 4.26032 8.84575 4.1207 8.70613C3.98108 8.56651 3.90264 8.37714 3.90264 8.17968C3.90264 7.98223 3.98108 7.79286 4.1207 7.65324C4.26032 7.51362 4.44969 7.43518 4.64715 7.43518C4.8446 7.43518 5.03397 7.51362 5.17359 7.65324C5.31321 7.79286 5.39165 7.98223 5.39165 8.17968C5.39165 8.37714 5.31321 8.56651 5.17359 8.70613C5.03397 8.84575 4.8446 8.92419 4.64715 8.92419ZM7.35346 8.92419C7.15601 8.92419 6.96664 8.84575 6.82702 8.70613C6.68739 8.56651 6.60896 8.37714 6.60896 8.17968C6.60896 7.98223 6.68739 7.79286 6.82702 7.65324C6.96664 7.51362 7.15601 7.43518 7.35346 7.43518C7.55092 7.43518 7.74028 7.51362 7.8799 7.65324C8.01953 7.79286 8.09796 7.98223 8.09796 8.17968C8.09796 8.37714 8.01953 8.56651 7.8799 8.70613C7.74028 8.84575 7.55092 8.92419 7.35346 8.92419ZM10.0592 8.92419C9.86175 8.92419 9.67239 8.84575 9.53276 8.70613C9.39314 8.56651 9.3147 8.37714 9.3147 8.17968C9.3147 7.98223 9.39314 7.79286 9.53276 7.65324C9.67239 7.51362 9.86175 7.43518 10.0592 7.43518C10.2567 7.43518 10.446 7.51362 10.5857 7.65324C10.7253 7.79286 10.8037 7.98223 10.8037 8.17968C10.8037 8.37714 10.7253 8.56651 10.5857 8.70613C10.446 8.84575 10.2567 8.92419 10.0592 8.92419Z" fill="#6A6A6A"/>
</svg>
