<svg width="13" height="12" viewBox="0 0 13 12" fill="none" xmlns="http://www.w3.org/2000/svg">
<path d="M11.6041 4.155C11.4976 4.02034 11.3619 3.91158 11.2073 3.83688C11.0528 3.76219 10.8832 3.72351 10.7116 3.72375H10.5012L10.6141 3.08663C10.6229 3.03802 10.622 2.98814 10.6114 2.93988C10.6008 2.89162 10.5808 2.84593 10.5524 2.80548C10.5241 2.76502 10.488 2.73059 10.4462 2.70418C10.4045 2.67777 10.3579 2.65991 10.3092 2.65163L7.49856 2.16075C7.45013 2.15217 7.40047 2.15323 7.35244 2.16385C7.30441 2.17448 7.25895 2.19447 7.21866 2.22268C7.17836 2.25089 7.14402 2.28677 7.1176 2.32826C7.09118 2.36976 7.0732 2.41605 7.06469 2.4645L6.84006 3.72375H6.45794L6.69531 2.4C6.71193 2.30305 6.74757 2.21036 6.80019 2.12725C6.85281 2.04415 6.92137 1.97229 7.0019 1.91581C7.08243 1.85934 7.17334 1.81936 7.2694 1.7982C7.36546 1.77703 7.46475 1.7751 7.56156 1.7925L9.05781 2.055L8.88156 1.06125C8.8731 1.01267 8.85512 0.966237 8.82864 0.924634C8.80216 0.883032 8.76771 0.847078 8.72728 0.818845C8.68684 0.790612 8.64123 0.770657 8.59305 0.760129C8.54487 0.7496 8.49509 0.748707 8.44656 0.7575L4.68156 1.41375C4.58031 1.4325 4.49406 1.485 4.43781 1.5675C4.38156 1.65 4.35906 1.75125 4.37406 1.84875L4.70219 3.72375H3.95406L3.63156 2.325C3.59406 2.15625 3.44406 2.03625 3.26781 2.03625H1.72656C1.52031 2.03625 1.35156 2.205 1.35156 2.41125C1.35156 2.6175 1.52031 2.78625 1.72656 2.78625H2.96781L4.14531 7.88625C4.20268 8.1381 4.34439 8.36279 4.54695 8.52307C4.74951 8.68335 5.00077 8.76959 5.25906 8.7675H10.0703C10.6066 8.7675 11.0641 8.4075 11.1841 7.88625L11.8216 5.115C11.9003 4.7775 11.8216 4.425 11.6041 4.155ZM9.40281 7.3275H6.03531C5.82906 7.3275 5.66031 7.15875 5.66031 6.9525C5.66031 6.7425 5.82906 6.5775 6.03531 6.5775H9.40281C9.61281 6.5775 9.77781 6.7425 9.77781 6.9525C9.77781 7.15875 9.61281 7.3275 9.40281 7.3275ZM10.2466 5.805H5.19156C4.98531 5.805 4.81656 5.63625 4.81656 5.43C4.81656 5.22 4.98531 5.055 5.19156 5.055H10.2466C10.4528 5.055 10.6216 5.22 10.6216 5.43C10.6216 5.63625 10.4528 5.805 10.2466 5.805ZM5.41844 9.35775C5.16733 9.35775 4.92647 9.45729 4.74863 9.63457C4.57079 9.81185 4.47048 10.0524 4.46969 10.3035C4.46969 10.8255 4.89531 11.2496 5.41844 11.2496C5.94156 11.2496 6.36719 10.8251 6.36719 10.3035C6.36639 10.0524 6.26609 9.81185 6.08825 9.63457C5.91041 9.45729 5.66954 9.35775 5.41844 9.35775ZM9.91019 9.35775C9.65905 9.35765 9.41813 9.45716 9.24027 9.63446C9.06241 9.81176 8.96213 10.0524 8.96144 10.3035C8.96144 10.8255 9.38706 11.2496 9.91019 11.2496C10.4333 11.2496 10.8589 10.8251 10.8589 10.3035C10.8583 10.0523 10.7581 9.81167 10.5802 9.63435C10.4023 9.45703 10.1614 9.35755 9.91019 9.35775Z" fill="#6A6A6A"/>
</svg>
