<svg width="17" height="16" viewBox="0 0 17 16" fill="none" xmlns="http://www.w3.org/2000/svg">
<mask id="mask0_5002_4563" style="mask-type:alpha" maskUnits="userSpaceOnUse" x="0" y="0" width="17" height="16">
<rect x="0.800781" width="16" height="16" fill="#D9D9D9"/>
</mask>
<g mask="url(#mask0_5002_4563)">
<path d="M8.80274 10.3847C9.55818 10.3847 10.1998 10.1203 10.7276 9.5915C11.2554 9.06272 11.5192 8.42061 11.5192 7.66517C11.5192 6.90972 11.2549 6.26811 10.7261 5.74033C10.1973 5.21256 9.55518 4.94867 8.79974 4.94867C8.0443 4.94867 7.40268 5.21306 6.87491 5.74183C6.34713 6.27061 6.08324 6.91272 6.08324 7.66817C6.08324 8.42361 6.34763 9.06522 6.87641 9.593C7.40518 10.1208 8.0473 10.3847 8.80274 10.3847ZM8.80124 9.46667C8.30124 9.46667 7.87624 9.29167 7.52624 8.94167C7.17624 8.59167 7.00124 8.16667 7.00124 7.66667C7.00124 7.16667 7.17624 6.74167 7.52624 6.39167C7.87624 6.04167 8.30124 5.86667 8.80124 5.86667C9.30124 5.86667 9.72624 6.04167 10.0762 6.39167C10.4262 6.74167 10.6012 7.16667 10.6012 7.66667C10.6012 8.16667 10.4262 8.59167 10.0762 8.94167C9.72624 9.29167 9.30124 9.46667 8.80124 9.46667ZM8.80124 12.3333C7.3978 12.3333 6.11424 11.9589 4.95057 11.2102C3.78691 10.4615 2.85807 9.4765 2.16407 8.25517C2.10852 8.15939 2.06791 8.06289 2.04224 7.96567C2.01668 7.86844 2.00391 7.76867 2.00391 7.66633C2.00391 7.564 2.01668 7.46433 2.04224 7.36733C2.06791 7.27033 2.10852 7.17394 2.16407 7.07817C2.85807 5.85683 3.78691 4.87183 4.95057 4.12317C6.11424 3.37439 7.3978 3 8.80124 3C10.2047 3 11.4882 3.37439 12.6519 4.12317C13.8156 4.87183 14.7444 5.85683 15.4384 7.07817C15.494 7.17394 15.5346 7.27044 15.5602 7.36767C15.5858 7.46489 15.5986 7.56467 15.5986 7.667C15.5986 7.76933 15.5858 7.869 15.5602 7.966C15.5346 8.063 15.494 8.15939 15.4384 8.25517C14.7444 9.4765 13.8156 10.4615 12.6519 11.2102C11.4882 11.9589 10.2047 12.3333 8.80124 12.3333Z" fill="#6A6A6A"/>
</g>
</svg>
