<svg width="13" height="13" viewBox="0 0 13 13" fill="none" xmlns="http://www.w3.org/2000/svg">
<path d="M9.74967 7.04166H3.24967C2.92467 7.04166 2.70801 6.825 2.70801 6.49999C2.70801 6.17499 2.92467 5.95833 3.24967 5.95833H9.74967C10.0747 5.95833 10.2913 6.17499 10.2913 6.49999C10.2913 6.825 10.0747 7.04166 9.74967 7.04166ZM8.12467 10.2917H4.87467C4.54967 10.2917 4.33301 10.075 4.33301 9.75C4.33301 9.42499 4.54967 9.20833 4.87467 9.20833H8.12467C8.44967 9.20833 8.66634 9.42499 8.66634 9.75C8.66634 10.075 8.44967 10.2917 8.12467 10.2917ZM11.3747 3.79166H1.62467C1.29967 3.79166 1.08301 3.57499 1.08301 3.24999C1.08301 2.92499 1.29967 2.70833 1.62467 2.70833H11.3747C11.6997 2.70833 11.9163 2.92499 11.9163 3.24999C11.9163 3.57499 11.6997 3.79166 11.3747 3.79166Z" fill="#0D2443"/>
</svg>
