<svg width="118" height="24" viewBox="0 0 118 24" fill="none" xmlns="http://www.w3.org/2000/svg">
<path d="M17.512 19H10.96L10.568 14.548H5.388L3.4 19H0.684L8.944 1.22H15.58L17.512 19ZM6.312 12.504H10.372L9.728 4.888L6.312 12.504ZM29.1237 6.96H34.8357L32.2597 19H27.7237L27.2197 17.208H27.0517C26.5664 17.7867 25.9037 18.272 25.0637 18.664C24.2424 19.0373 23.4117 19.224 22.5717 19.224C21.4517 19.224 20.5744 18.944 19.9397 18.384C19.305 17.8053 18.9877 17.0587 18.9877 16.144C18.9877 15.6773 19.0624 15.0987 19.2117 14.408C19.3797 13.6987 19.529 13.036 19.6597 12.42L20.8357 6.96H26.5197L25.1197 13.512C25.0824 13.6613 25.045 13.8387 25.0077 14.044C24.9704 14.2493 24.933 14.4547 24.8957 14.66C24.8584 14.8467 24.821 15.0333 24.7837 15.22C24.765 15.388 24.7557 15.528 24.7557 15.64C24.7557 15.92 24.8117 16.1627 24.9237 16.368C25.0544 16.5547 25.2784 16.648 25.5957 16.648C25.9317 16.648 26.249 16.536 26.5477 16.312C26.8464 16.088 27.0797 15.8733 27.2477 15.668L29.1237 6.96ZM36.3466 6.96C37.0373 6.81067 37.6439 6.64267 38.1666 6.456C38.6893 6.26933 39.1653 6.036 39.5946 5.756C40.0426 5.476 40.4626 5.13067 40.8546 4.72C41.2653 4.30933 41.7039 3.80533 42.1706 3.208H45.0546L44.2426 6.96H46.4266L46.0626 8.836H43.8506L42.7026 14.296C42.6093 14.7253 42.5346 15.108 42.4786 15.444C42.4226 15.78 42.3946 16.0413 42.3946 16.228C42.3946 16.6013 42.5253 16.8347 42.7866 16.928C43.0666 17.0213 43.5799 17.068 44.3266 17.068L43.9066 19C43.7759 19.0373 43.5706 19.0653 43.2906 19.084C43.0293 19.1027 42.7306 19.1213 42.3946 19.14C42.0773 19.1773 41.7413 19.196 41.3866 19.196C41.0506 19.2147 40.7519 19.224 40.4906 19.224C40.0239 19.224 39.5666 19.1867 39.1186 19.112C38.6706 19.056 38.2693 18.9347 37.9146 18.748C37.5599 18.5427 37.2706 18.2533 37.0466 17.88C36.8413 17.5067 36.7386 17.0027 36.7386 16.368C36.7386 16.144 36.7479 15.864 36.7666 15.528C36.8039 15.192 36.8693 14.8187 36.9626 14.408L38.1386 8.836H35.9546L36.3466 6.96ZM54.5973 6.652C56.8187 6.652 58.4333 7.044 59.4413 7.828C60.5053 8.64933 61.0373 10.012 61.0373 11.916C61.0373 13.092 60.8413 14.156 60.4493 15.108C60.0573 16.0413 59.5067 16.816 58.7973 17.432C57.3787 18.6267 55.3253 19.224 52.6373 19.224C50.3413 19.224 48.6987 18.7853 47.7093 17.908C46.6453 16.9933 46.1133 15.6213 46.1133 13.792C46.1133 12.5787 46.356 11.4773 46.8413 10.488C47.3453 9.49867 48.064 8.67733 48.9973 8.024C50.36 7.10933 52.2267 6.652 54.5973 6.652ZM52.6933 17.32C53.16 17.32 53.5613 17.0587 53.8973 16.536C54.252 16.0133 54.532 15.3787 54.7373 14.632C54.9427 13.8667 55.092 13.0827 55.1853 12.28C55.2973 11.4587 55.3533 10.7493 55.3533 10.152C55.3533 9.62933 55.2973 9.23733 55.1853 8.976C55.092 8.696 54.8773 8.556 54.5413 8.556C54.0373 8.556 53.5987 8.82667 53.2253 9.368C52.8707 9.90933 52.5813 10.5533 52.3573 11.3C52.1333 12.0467 51.9653 12.812 51.8533 13.596C51.76 14.38 51.7133 15.0147 51.7133 15.5C51.7133 16.7133 52.04 17.32 52.6933 17.32ZM67.3148 19H61.6028L65.5788 0.183999H71.3188L67.3148 19ZM78.9059 6.652C81.1273 6.652 82.7419 7.044 83.7499 7.828C84.8139 8.64933 85.3459 10.012 85.3459 11.916C85.3459 13.092 85.1499 14.156 84.7579 15.108C84.3659 16.0413 83.8153 16.816 83.1059 17.432C81.6873 18.6267 79.6339 19.224 76.9459 19.224C74.6499 19.224 73.0073 18.7853 72.0179 17.908C70.9539 16.9933 70.4219 15.6213 70.4219 13.792C70.4219 12.5787 70.6646 11.4773 71.1499 10.488C71.6539 9.49867 72.3726 8.67733 73.3059 8.024C74.6686 7.10933 76.5353 6.652 78.9059 6.652ZM77.0019 17.32C77.4686 17.32 77.8699 17.0587 78.2059 16.536C78.5606 16.0133 78.8406 15.3787 79.0459 14.632C79.2513 13.8667 79.4006 13.0827 79.4939 12.28C79.6059 11.4587 79.6619 10.7493 79.6619 10.152C79.6619 9.62933 79.6059 9.23733 79.4939 8.976C79.4006 8.696 79.1859 8.556 78.8499 8.556C78.3459 8.556 77.9073 8.82667 77.5339 9.368C77.1793 9.90933 76.8899 10.5533 76.6659 11.3C76.4419 12.0467 76.2739 12.812 76.1619 13.596C76.0686 14.38 76.0219 15.0147 76.0219 15.5C76.0219 16.7133 76.3486 17.32 77.0019 17.32ZM97.6154 6.96H102.151L99.8554 17.852C99.6874 18.692 99.4074 19.4667 99.0154 20.176C98.6234 20.8853 98.0727 21.5013 97.3634 22.024C96.6727 22.5467 95.7954 22.9573 94.7314 23.256C93.6861 23.5547 92.4074 23.704 90.8954 23.704C90.6154 23.704 90.2794 23.6947 89.8874 23.676C89.4954 23.676 89.0941 23.6667 88.6834 23.648C88.2727 23.648 87.8807 23.6387 87.5074 23.62C87.1341 23.6013 86.8354 23.5827 86.6114 23.564L87.1434 21.548C87.7407 21.6413 88.3474 21.688 88.9634 21.688C89.5981 21.7067 90.1394 21.716 90.5874 21.716C91.1474 21.716 91.6141 21.66 91.9874 21.548C92.3794 21.4547 92.6967 21.296 92.9394 21.072C93.2007 20.848 93.4061 20.5493 93.5554 20.176C93.7234 19.8027 93.8541 19.3453 93.9474 18.804L94.2834 16.984H94.0874C93.9754 17.152 93.8074 17.3573 93.5834 17.6C93.3781 17.824 93.1074 18.048 92.7714 18.272C92.4354 18.4773 92.0341 18.6547 91.5674 18.804C91.1194 18.9347 90.6061 19 90.0274 19C89.3741 19 88.8141 18.9067 88.3474 18.72C87.8994 18.5147 87.5354 18.244 87.2554 17.908C86.9754 17.5533 86.7701 17.1427 86.6394 16.676C86.5087 16.1907 86.4434 15.668 86.4434 15.108C86.4434 14.8653 86.4621 14.492 86.4994 13.988C86.5367 13.484 86.6207 12.9147 86.7514 12.28C86.9007 11.6453 87.1061 11.0013 87.3674 10.348C87.6474 9.676 88.0114 9.06933 88.4594 8.528C88.9261 7.98667 89.4954 7.53867 90.1674 7.184C90.8581 6.82933 91.6887 6.652 92.6594 6.652C92.9581 6.652 93.2847 6.68 93.6394 6.736C93.9941 6.792 94.3394 6.89467 94.6754 7.044C95.0114 7.19333 95.3101 7.408 95.5714 7.688C95.8327 7.968 96.0381 8.332 96.1874 8.78H96.3554L97.6154 6.96ZM94.4794 9.396C94.0314 9.396 93.6581 9.63867 93.3594 10.124C93.0607 10.5907 92.8181 11.1413 92.6314 11.776C92.4447 12.4107 92.3047 13.0453 92.2114 13.68C92.1367 14.296 92.0994 14.7533 92.0994 15.052C92.0994 15.4253 92.1554 15.7427 92.2674 16.004C92.3981 16.2467 92.6221 16.368 92.9394 16.368C93.1261 16.368 93.3034 16.3213 93.4714 16.228C93.6581 16.1347 93.8261 16.032 93.9754 15.92C94.1434 15.7893 94.2834 15.6587 94.3954 15.528C94.5261 15.3973 94.6194 15.2947 94.6754 15.22L95.7114 10.32C95.5621 10.1147 95.3847 9.90933 95.1794 9.704C94.9927 9.49867 94.7594 9.396 94.4794 9.396ZM111.199 6.652C113.42 6.652 115.035 7.044 116.043 7.828C117.107 8.64933 117.639 10.012 117.639 11.916C117.639 13.092 117.443 14.156 117.051 15.108C116.659 16.0413 116.108 16.816 115.399 17.432C113.98 18.6267 111.927 19.224 109.239 19.224C106.943 19.224 105.3 18.7853 104.311 17.908C103.247 16.9933 102.715 15.6213 102.715 13.792C102.715 12.5787 102.958 11.4773 103.443 10.488C103.947 9.49867 104.666 8.67733 105.599 8.024C106.962 7.10933 108.828 6.652 111.199 6.652ZM109.295 17.32C109.762 17.32 110.163 17.0587 110.499 16.536C110.854 16.0133 111.134 15.3787 111.339 14.632C111.544 13.8667 111.694 13.0827 111.787 12.28C111.899 11.4587 111.955 10.7493 111.955 10.152C111.955 9.62933 111.899 9.23733 111.787 8.976C111.694 8.696 111.479 8.556 111.143 8.556C110.639 8.556 110.2 8.82667 109.827 9.368C109.472 9.90933 109.183 10.5533 108.959 11.3C108.735 12.0467 108.567 12.812 108.455 13.596C108.362 14.38 108.315 15.0147 108.315 15.5C108.315 16.7133 108.642 17.32 109.295 17.32Z" fill="white"/>
</svg>
