<svg width="24" height="24" viewBox="0 0 24 24" fill="none" xmlns="http://www.w3.org/2000/svg">
<path d="M11.9998 6.50248C8.9596 6.50248 6.50603 8.95605 6.50603 11.9962C6.50603 15.0364 8.9596 17.49 11.9998 17.49C15.04 17.49 17.4935 15.0364 17.4935 11.9962C17.4935 8.95605 15.04 6.50248 11.9998 6.50248ZM11.9998 15.5668C10.0337 15.5668 8.42924 13.9623 8.42924 11.9962C8.42924 10.0302 10.0337 8.4257 11.9998 8.4257C13.9659 8.4257 15.5703 10.0302 15.5703 11.9962C15.5703 13.9623 13.9659 15.5668 11.9998 15.5668ZM17.7185 4.99712C17.0087 4.99712 16.4355 5.57034 16.4355 6.28016C16.4355 6.98998 17.0087 7.5632 17.7185 7.5632C18.4284 7.5632 19.0016 6.99266 19.0016 6.28016C19.0018 6.11161 18.9687 5.94467 18.9043 5.78891C18.8399 5.63315 18.7454 5.49163 18.6262 5.37244C18.5071 5.25326 18.3655 5.15876 18.2098 5.09436C18.054 5.02995 17.8871 4.99691 17.7185 4.99712ZM22.7087 11.9962C22.7087 10.5177 22.7221 9.05248 22.6391 7.57659C22.556 5.8623 22.165 4.34087 20.9114 3.0873C19.6551 1.83105 18.1364 1.44266 16.4221 1.35962C14.9435 1.27659 13.4784 1.28998 12.0025 1.28998C10.5239 1.28998 9.05871 1.27659 7.58282 1.35962C5.86853 1.44266 4.3471 1.83373 3.09353 3.0873C1.83728 4.34355 1.44889 5.8623 1.36585 7.57659C1.28281 9.05516 1.29621 10.5203 1.29621 11.9962C1.29621 13.4721 1.28281 14.94 1.36585 16.4159C1.44889 18.1302 1.83996 19.6516 3.09353 20.9052C4.34978 22.1614 5.86853 22.5498 7.58282 22.6328C9.06139 22.7159 10.5266 22.7025 12.0025 22.7025C13.481 22.7025 14.9462 22.7159 16.4221 22.6328C18.1364 22.5498 19.6578 22.1587 20.9114 20.9052C22.1676 19.6489 22.556 18.1302 22.6391 16.4159C22.7248 14.94 22.7087 13.4748 22.7087 11.9962ZM20.3516 18.3123C20.156 18.7998 19.9203 19.1641 19.5426 19.5391C19.165 19.9168 18.8034 20.1525 18.3159 20.348C16.9069 20.9078 13.5614 20.7819 11.9998 20.7819C10.4382 20.7819 7.08996 20.9078 5.68103 20.3507C5.19353 20.1552 4.82924 19.9194 4.45424 19.5418C4.07656 19.1641 3.84085 18.8025 3.64531 18.315C3.08817 16.9034 3.21406 13.5578 3.21406 11.9962C3.21406 10.4346 3.08817 7.08641 3.64531 5.67748C3.84085 5.18998 4.07656 4.8257 4.45424 4.4507C4.83192 4.0757 5.19353 3.8373 5.68103 3.64177C7.08996 3.08462 10.4382 3.21052 11.9998 3.21052C13.5614 3.21052 16.9096 3.08462 18.3185 3.64177C18.806 3.8373 19.1703 4.07302 19.5453 4.4507C19.923 4.82837 20.1587 5.18998 20.3542 5.67748C20.9114 7.08641 20.7855 10.4346 20.7855 11.9962C20.7855 13.5578 20.9114 16.9034 20.3516 18.3123Z" fill="white"/>
</svg>
