<svg width="24" height="24" viewBox="0 0 24 24" fill="none" xmlns="http://www.w3.org/2000/svg">
<g clip-path="url(#clip0_527_17124)">
<g clip-path="url(#clip1_527_17124)">
<path d="M23.991 9.53498C23.991 10.4362 23.5068 11.2266 22.7848 11.6594C23.0711 12.0722 23.2242 12.5626 23.2237 13.0649C23.2237 14.4296 22.1134 15.5399 20.7487 15.5399H15.5241C15.6842 16.2655 15.9032 17.3544 16.0557 18.4942C16.4526 21.4605 16.1813 23.1056 15.2023 23.6714C14.5919 24.024 13.9337 24.0955 13.3491 23.873C12.8975 23.7009 12.2875 23.278 11.9399 22.2399L10.5668 18.6446C9.65611 16.3954 6.2879 13.9994 5.4907 13.4556H0.719246C0.327137 13.4556 0.00927734 13.1377 0.00927734 12.7456V2.31792C0.00927734 1.92581 0.327184 1.60795 0.719246 1.60795H5.57189C8.27695 0.541122 11.1226 -3.8147e-06 14.0326 -3.8147e-06H19.7254C21.09 -3.8147e-06 22.2003 1.11028 22.2003 2.47495C22.2009 2.93562 22.0721 3.3872 21.8286 3.77826C22.6537 4.18007 23.2236 5.02729 23.2236 6.00496C23.2242 6.50729 23.071 6.99776 22.7847 7.41051C23.5068 7.84336 23.991 8.63372 23.991 9.53498ZM4.99673 3.02784H1.42921V12.0356H4.99673V3.02784ZM21.516 8.47997H20.7487C20.3565 8.47997 20.0387 8.16206 20.0387 7.77C20.0387 7.37789 20.3566 7.06003 20.7487 7.06003C21.3304 7.06003 21.8037 6.58673 21.8037 6.00496C21.8037 5.42325 21.3304 4.94995 20.7487 4.94995H19.7254C19.3333 4.94995 19.0154 4.63204 19.0154 4.23998C19.0154 3.84792 19.3334 3.53001 19.7254 3.53001C20.3071 3.53001 20.7804 3.05672 20.7804 2.475C20.7804 1.89328 20.3071 1.41998 19.7254 1.41998H14.0326C11.4178 1.41998 8.8582 1.88522 6.41676 2.80359V12.3678C7.48893 13.1075 10.8651 15.5856 11.8863 18.1197L11.891 18.1318L13.2721 21.7478C13.276 21.758 13.2796 21.7682 13.283 21.7785C13.4169 22.184 13.6199 22.4565 13.8546 22.5459C14.0822 22.6327 14.3268 22.5372 14.4919 22.4418C14.498 22.4383 15.0902 21.9966 14.6498 18.6934C14.3996 16.8174 13.9453 15.0232 13.9408 15.0052C13.9141 14.9004 13.9117 14.7909 13.9338 14.685C13.9559 14.5791 14.0018 14.4797 14.0682 14.3943C14.1346 14.3089 14.2196 14.2398 14.3167 14.1922C14.4139 14.1447 14.5206 14.1199 14.6287 14.1199H20.7488C21.3305 14.1199 21.8038 13.6466 21.8038 13.0649C21.8038 12.4832 21.3305 12.0099 20.7488 12.0099C20.3567 12.0099 20.0388 11.692 20.0388 11.2999C20.0388 10.9078 20.3567 10.59 20.7488 10.59H21.5162C22.0979 10.59 22.5712 10.1167 22.5712 9.53493C22.5712 8.95326 22.0978 8.47997 21.516 8.47997Z" fill="#FF4B26"/>
</g>
</g>
<defs>
<clipPath id="clip0_527_17124">
<rect width="24" height="24" fill="white" transform="matrix(1 0 0 -1 0 24)"/>
</clipPath>
<clipPath id="clip1_527_17124">
<rect width="24" height="24" fill="white" transform="matrix(1 0 0 -1 0 24)"/>
</clipPath>
</defs>
</svg>
