<svg width="24" height="24" viewBox="0 0 24 24" fill="none" xmlns="http://www.w3.org/2000/svg">
<g clip-path="url(#clip0_527_17118)">
<g clip-path="url(#clip1_527_17118)">
<path d="M23.991 14.465C23.991 13.5638 23.5068 12.7734 22.7848 12.3406C23.0711 11.9278 23.2242 11.4374 23.2237 10.9351C23.2237 9.57038 22.1134 8.4601 20.7487 8.4601H15.5241C15.6842 7.73447 15.9032 6.64561 16.0557 5.50575C16.4526 2.53946 16.1813 0.894378 15.2023 0.328644C14.5919 -0.0239967 13.9337 -0.095528 13.3491 0.127035C12.8975 0.299066 12.2875 0.722019 11.9399 1.76007L10.5668 5.35542C9.65611 7.60463 6.2879 10.0006 5.4907 10.5444H0.719246C0.327137 10.5444 0.00927734 10.8623 0.00927734 11.2544V21.6821C0.00927734 22.0742 0.327184 22.392 0.719246 22.392H5.57189C8.27695 23.4589 11.1226 24 14.0326 24H19.7254C21.09 24 22.2003 22.8897 22.2003 21.525C22.2009 21.0644 22.0721 20.6128 21.8286 20.2217C22.6537 19.8199 23.2236 18.9727 23.2236 17.995C23.2242 17.4927 23.071 17.0022 22.7847 16.5895C23.5068 16.1566 23.991 15.3663 23.991 14.465ZM4.99673 20.9722H1.42921V11.9644H4.99673V20.9722ZM21.516 15.52H20.7487C20.3565 15.52 20.0387 15.8379 20.0387 16.23C20.0387 16.6221 20.3566 16.94 20.7487 16.94C21.3304 16.94 21.8037 17.4133 21.8037 17.995C21.8037 18.5768 21.3304 19.05 20.7487 19.05H19.7254C19.3333 19.05 19.0154 19.368 19.0154 19.76C19.0154 20.1521 19.3334 20.47 19.7254 20.47C20.3071 20.47 20.7804 20.9433 20.7804 21.525C20.7804 22.1067 20.3071 22.58 19.7254 22.58H14.0326C11.4178 22.58 8.8582 22.1148 6.41676 21.1964V11.6322C7.48893 10.8925 10.8651 8.41444 11.8863 5.88033L11.891 5.86824L13.2721 2.25216C13.276 2.24203 13.2796 2.23177 13.283 2.2215C13.4169 1.81603 13.6199 1.54346 13.8546 1.45407C14.0822 1.3673 14.3268 1.46278 14.4919 1.55818C14.498 1.56169 15.0902 2.00339 14.6498 5.30658C14.3996 7.18257 13.9453 8.97685 13.9408 8.99475C13.9141 9.09957 13.9117 9.2091 13.9338 9.31498C13.9559 9.42086 14.0018 9.52029 14.0682 9.6057C14.1346 9.6911 14.2196 9.76022 14.3167 9.80777C14.4139 9.85532 14.5206 9.88006 14.6287 9.88008H20.7488C21.3305 9.88008 21.8038 10.3534 21.8038 10.9351C21.8038 11.5168 21.3305 11.9901 20.7488 11.9901C20.3567 11.9901 20.0388 12.308 20.0388 12.7001C20.0388 13.0922 20.3567 13.41 20.7488 13.41H21.5162C22.0979 13.41 22.5712 13.8833 22.5712 14.4651C22.5712 15.0467 22.0978 15.52 21.516 15.52Z" fill="#0F993E"/>
</g>
</g>
<defs>
<clipPath id="clip0_527_17118">
<rect width="24" height="24" fill="white"/>
</clipPath>
<clipPath id="clip1_527_17118">
<rect width="24" height="24" fill="white"/>
</clipPath>
</defs>
</svg>
