<svg width="14" height="14" viewBox="0 0 14 14" fill="none" xmlns="http://www.w3.org/2000/svg">
<g clip-path="url(#clip0_502_7516)">
<path d="M0.419031 7.84908C0.190301 7.84908 0.00488281 7.66363 0.00488281 7.43493V1.3521C0.00488281 1.12337 0.190328 0.937947 0.419031 0.937947H2.91423V7.84908H0.419031ZM13.9942 5.56208C13.9942 6.08781 13.7118 6.54883 13.2906 6.80132C13.4576 7.0421 13.5469 7.3282 13.5466 7.62122C13.5466 8.41728 12.8989 9.06495 12.1029 9.06495H9.0552C9.14861 9.48823 9.27636 10.1234 9.36531 10.7883C9.5968 12.5187 9.43859 13.4783 8.86746 13.8083C8.51139 14.014 8.12748 14.0557 7.78645 13.9259C7.52299 13.8255 7.1672 13.5788 6.96444 12.9733L6.16343 10.876C5.75735 9.87312 4.51379 8.82025 3.74255 8.23807V0.75469C5.17192 0.253861 6.66347 1.90735e-06 8.18515 1.90735e-06H11.5059C12.302 1.90735e-06 12.9497 0.647667 12.9497 1.44373C12.95 1.71245 12.8749 1.97587 12.7328 2.20399C13.2141 2.43838 13.5465 2.93259 13.5465 3.5029C13.5469 3.79592 13.4576 4.08203 13.2906 4.3228C13.7118 4.5753 13.9942 5.03634 13.9942 5.56208Z" fill="#D93F21"/>
</g>
<defs>
<clipPath id="clip0_502_7516">
<rect width="14" height="14" fill="white" transform="matrix(1 0 0 -1 0 14)"/>
</clipPath>
</defs>
</svg>
