<svg width="14" height="14" viewBox="0 0 14 14" fill="none" xmlns="http://www.w3.org/2000/svg">
<g clip-path="url(#clip0_502_7508)">
<path d="M0.419031 6.15092C0.190301 6.15092 0.00488281 6.33637 0.00488281 6.56507V12.6479C0.00488281 12.8766 0.190328 13.0621 0.419031 13.0621H2.91423V6.15092H0.419031ZM13.9942 8.43793C13.9942 7.91219 13.7118 7.45117 13.2906 7.19868C13.4576 6.95791 13.5469 6.6718 13.5466 6.37878C13.5466 5.58272 12.8989 4.93506 12.1029 4.93506H9.0552C9.14861 4.51178 9.27636 3.87661 9.36531 3.21169C9.5968 1.48135 9.43859 0.521721 8.86746 0.191709C8.51139 -0.0139981 8.12748 -0.0557247 7.78645 0.0741035C7.52299 0.174455 7.1672 0.421178 6.96444 1.02671L6.16343 3.124C5.75735 4.12688 4.51379 5.17976 3.74255 5.76193V13.2453C5.17192 13.7461 6.66347 14 8.18515 14H11.5059C12.302 14 12.9497 13.3523 12.9497 12.5563C12.95 12.2876 12.8749 12.0241 12.7328 11.796C13.2141 11.5616 13.5465 11.0674 13.5465 10.4971C13.5469 10.2041 13.4576 9.91797 13.2906 9.6772C13.7118 9.42471 13.9942 8.96367 13.9942 8.43793Z" fill="#0F993E"/>
</g>
<defs>
<clipPath id="clip0_502_7508">
<rect width="14" height="14" fill="white"/>
</clipPath>
</defs>
</svg>
