<svg width="14" height="14" viewBox="0 0 14 14" fill="none" xmlns="http://www.w3.org/2000/svg">
<path d="M9.00952 2.44849H2.50123C1.89054 2.44849 1.39453 2.94449 1.39453 3.55518V12.8933C1.39453 13.504 1.89054 14 2.50123 14H9.00952C9.62021 14 10.1162 13.504 10.1162 12.8933V3.55518C10.1134 2.94449 9.61734 2.44849 9.00952 2.44849ZM9.33924 12.8904C9.33924 13.0739 9.19015 13.223 9.00665 13.223H2.49836C2.31487 13.223 2.16578 13.0739 2.16578 12.8904V3.55518C2.16578 3.37169 2.31487 3.2226 2.49836 3.2226H9.00665C9.19015 3.2226 9.33924 3.37169 9.33924 3.55518V12.8904Z" fill="#2762B3" fill-opacity="0.5"/>
<path d="M11.4978 0H4.98951C4.37882 0 3.88281 0.496006 3.88281 1.1067C3.88281 1.32173 4.05484 1.49375 4.26987 1.49375C4.4849 1.49375 4.65693 1.32173 4.65693 1.1067C4.65693 0.923203 4.80602 0.774114 4.98951 0.774114H11.4978C11.6813 0.774114 11.8304 0.923203 11.8304 1.1067V10.4448C11.8304 10.6283 11.6813 10.7774 11.4978 10.7774C11.2828 10.7774 11.1107 10.9494 11.1107 11.1644C11.1107 11.3795 11.2828 11.5515 11.4978 11.5515C12.1085 11.5515 12.6045 11.0555 12.6045 10.4448V1.1067C12.6045 0.496006 12.1085 0 11.4978 0Z" fill="#2762B3" fill-opacity="0.5"/>
</svg>
