<svg width="16" height="17" viewBox="0 0 16 17" fill="none" xmlns="http://www.w3.org/2000/svg">
<g clip-path="url(#clip0_5083_11963)">
<path d="M11.365 0.5H4.6331C4.48009 0.5 4.32859 0.530155 4.18725 0.588742C4.04591 0.647329 3.9175 0.733198 3.80937 0.841441C3.70123 0.949685 3.61549 1.07818 3.55705 1.21958C3.4986 1.36098 3.4686 1.51251 3.46875 1.66551V15.3357C3.46875 15.9782 3.98883 16.5 4.6331 16.5H11.365C11.6737 16.4998 11.9698 16.3771 12.1881 16.1588C12.4064 15.9405 12.5292 15.6444 12.5293 15.3357V1.66551C12.5293 1.3566 12.4067 1.06033 12.1884 0.841783C11.97 0.62324 11.6739 0.500309 11.365 0.5ZM6.33793 1.20782H9.6613C9.74526 1.20782 9.81348 1.33318 9.81348 1.48827C9.81348 1.64336 9.74526 1.7693 9.6613 1.7693H6.33793C6.25339 1.7693 6.18634 1.64336 6.18634 1.48827C6.18634 1.33318 6.25339 1.20782 6.33793 1.20782ZM7.99962 15.3496C7.80246 15.3496 7.61337 15.2713 7.47396 15.1319C7.33455 14.9925 7.25623 14.8034 7.25623 14.6063C7.25623 14.4091 7.33455 14.22 7.47396 14.0806C7.61337 13.9412 7.80246 13.8629 7.99962 13.8629C8.19677 13.8629 8.38586 13.9412 8.52527 14.0806C8.66468 14.22 8.743 14.4091 8.743 14.6063C8.743 14.8034 8.66468 14.9925 8.52527 15.1319C8.38586 15.2713 8.19677 15.3496 7.99962 15.3496ZM11.6571 12.8023H4.34157V2.46662H11.6571V12.8023Z" fill="#6A6A6A"/>
</g>
<defs>
<clipPath id="clip0_5083_11963">
<rect width="16" height="16" fill="white" transform="translate(0 0.5)"/>
</clipPath>
</defs>
</svg>
