<svg width="16" height="14" viewBox="0 0 16 14" fill="none" xmlns="http://www.w3.org/2000/svg">
<path d="M0.5 11.2114V9.54416C0.5 9.15766 0.59975 8.81272 0.79925 8.50935C0.99875 8.20597 1.26519 7.96997 1.59856 7.80134C2.31131 7.45272 3.028 7.18391 3.74863 6.99491C4.46938 6.80603 5.26144 6.71159 6.12481 6.71159C6.67769 6.71159 7.20269 6.75172 7.69981 6.83197C8.19694 6.91222 8.68444 7.03172 9.16231 7.19047C9.00619 7.32247 8.86381 7.46628 8.73519 7.62191C8.60656 7.77753 8.49031 7.94041 8.38644 8.11053C8.03069 8.01541 7.6665 7.94597 7.29388 7.90222C6.92125 7.85847 6.53156 7.83659 6.12481 7.83659C5.37681 7.83659 4.67588 7.91853 4.022 8.08241C3.36812 8.24641 2.73256 8.48753 2.11531 8.80578C1.94506 8.89716 1.82075 9.00391 1.74238 9.12603C1.664 9.24816 1.62481 9.38753 1.62481 9.54416V10.0866H7.64506C7.62494 10.2725 7.61488 10.4583 7.61488 10.6442C7.61488 10.8301 7.62256 11.0192 7.63794 11.2114H0.5ZM6.12481 5.49997C5.40294 5.49997 4.785 5.24297 4.271 4.72897C3.757 4.21484 3.5 3.59684 3.5 2.87497C3.5 2.15309 3.757 1.53516 4.271 1.02116C4.785 0.507032 5.40294 0.249969 6.12481 0.249969C6.84669 0.249969 7.46469 0.507032 7.97881 1.02116C8.49281 1.53516 8.74981 2.15309 8.74981 2.87497C8.74981 3.59684 8.49281 4.21484 7.97881 4.72897C7.46469 5.24297 6.84669 5.49997 6.12481 5.49997ZM6.12481 4.37497C6.53731 4.37497 6.89044 4.22809 7.18419 3.93434C7.47794 3.64059 7.62481 3.28747 7.62481 2.87497C7.62481 2.46247 7.47794 2.10934 7.18419 1.81559C6.89044 1.52184 6.53731 1.37497 6.12481 1.37497C5.71231 1.37497 5.35919 1.52184 5.06544 1.81559C4.77169 2.10934 4.62481 2.46247 4.62481 2.87497C4.62481 3.28747 4.77169 3.64059 5.06544 3.93434C5.35919 4.22809 5.71231 4.37497 6.12481 4.37497ZM12.6007 2.87497C12.6007 3.59684 12.3437 4.21484 11.8297 4.72897C11.3157 5.24297 10.6978 5.49997 9.97588 5.49997C9.89125 5.49997 9.78356 5.49035 9.65281 5.4711C9.52194 5.45185 9.41425 5.43072 9.32975 5.40772C9.6335 5.05097 9.86281 4.65603 10.0177 4.22291C10.1724 3.78978 10.2498 3.34003 10.2498 2.87366C10.2498 2.40728 10.17 1.95916 10.0104 1.52928C9.85075 1.09953 9.62388 0.703907 9.32975 0.342407C9.43738 0.303907 9.54506 0.278907 9.65281 0.267407C9.76044 0.255782 9.86813 0.249969 9.97588 0.249969C10.6978 0.249969 11.3157 0.507032 11.8297 1.02116C12.3437 1.53516 12.6007 2.15309 12.6007 2.87497ZM12.4978 13.9302C11.5586 13.9302 10.7581 13.5992 10.0961 12.9373C9.43419 12.2755 9.10325 11.475 9.10325 10.5358C9.10325 9.58534 9.43419 8.78003 10.0961 8.11991C10.7581 7.45978 11.5586 7.12972 12.4978 7.12972C13.4481 7.12972 14.2534 7.45978 14.9135 8.11991C15.5736 8.78003 15.9037 9.58534 15.9037 10.5358C15.9037 11.475 15.5736 12.2755 14.9135 12.9373C14.2534 13.5992 13.4481 13.9302 12.4978 13.9302ZM12.0181 12.2933L14.3878 9.91203L13.9205 9.45191L12.0181 11.3472L11.0576 10.3866L10.5903 10.8653L12.0181 12.2933Z" fill="white"/>
</svg>
