<svg width="20" height="20" viewBox="0 0 20 20" fill="none" xmlns="http://www.w3.org/2000/svg">
<mask id="mask0_5038_4785" style="mask-type:alpha" maskUnits="userSpaceOnUse" x="0" y="0" width="20" height="20">
<rect width="20" height="20" fill="#D9D9D9"/>
</mask>
<g mask="url(#mask0_5038_4785)">
<path d="M16.0294 17.7852L13.0967 14.8781C12.6052 15.0683 12.1001 15.2056 11.5813 15.29C11.0627 15.3744 10.5357 15.4167 10.0005 15.4167C8.24616 15.4167 6.63957 14.9501 5.18068 14.0169C3.72193 13.0835 2.56575 11.8535 1.71214 10.3269C1.64269 10.2073 1.59193 10.0855 1.55984 9.96146C1.52776 9.83757 1.51172 9.71153 1.51172 9.58333C1.51172 9.45514 1.52908 9.32771 1.5638 9.20104C1.59852 9.07451 1.65061 8.9541 1.72005 8.83979C2.05227 8.28743 2.4054 7.75298 2.77943 7.23646C3.15332 6.71979 3.58811 6.26278 4.0838 5.86541L2.20234 3.97104C2.08707 3.85576 2.02804 3.71291 2.02526 3.5425C2.02262 3.37208 2.08595 3.22222 2.21526 3.09291C2.33595 2.97222 2.48234 2.91187 2.65443 2.91187C2.82637 2.91187 2.97269 2.97222 3.09339 3.09291L16.9076 16.9071C17.023 17.0225 17.0841 17.1653 17.0911 17.3356C17.098 17.506 17.0369 17.6559 16.9076 17.7852C16.7869 17.9059 16.6405 17.9662 16.4684 17.9662C16.2964 17.9662 16.1501 17.9059 16.0294 17.7852ZM10.0005 12.9808C10.1853 12.9808 10.3619 12.9699 10.5301 12.9479C10.6984 12.926 10.8627 12.8781 11.023 12.8044L6.77943 8.56083C6.71096 8.72111 6.66443 8.88542 6.63984 9.05375C6.61526 9.22194 6.60297 9.39847 6.60297 9.58333C6.60297 10.5289 6.93283 11.3315 7.59255 11.9912C8.25227 12.651 9.05491 12.9808 10.0005 12.9808ZM10.0005 3.75C11.7601 3.75 13.3741 4.21875 14.8426 5.15625C16.311 6.09375 17.4694 7.33118 18.3178 8.86854C18.3818 8.97437 18.4312 9.08791 18.4659 9.20916C18.5006 9.33041 18.518 9.45514 18.518 9.58333C18.518 9.71153 18.5028 9.83625 18.4723 9.9575C18.4419 10.0787 18.3946 10.1923 18.3305 10.2981C18.0773 10.7799 17.7942 11.234 17.4813 11.6602C17.1682 12.0865 16.8183 12.4876 16.4315 12.8637C16.2585 13.0368 16.0533 13.1164 15.8161 13.1025C15.579 13.0886 15.3739 12.9951 15.2007 12.8221L13.454 11.0833C13.3675 10.9968 13.3103 10.8969 13.2826 10.7835C13.2548 10.6703 13.2564 10.5523 13.2873 10.4294C13.3268 10.2863 13.3551 10.1474 13.3721 10.0127C13.3894 9.87812 13.398 9.735 13.398 9.58333C13.398 8.63778 13.0681 7.83514 12.4084 7.17541C11.7487 6.51569 10.946 6.18583 10.0005 6.18583C9.8488 6.18583 9.707 6.19576 9.57505 6.21562C9.44311 6.23534 9.30818 6.265 9.17026 6.30458C9.04748 6.34083 8.92464 6.34507 8.80172 6.31729C8.67894 6.28951 8.57429 6.23236 8.48776 6.14583L7.71193 5.37021C7.47484 5.13298 7.39609 4.8568 7.47568 4.54166C7.55526 4.22653 7.75533 4.02569 8.07589 3.93916C8.39102 3.875 8.70832 3.82743 9.02776 3.79646C9.34721 3.76548 9.67144 3.75 10.0005 3.75ZM11.6142 8.00958C11.7831 8.19555 11.9223 8.40416 12.0317 8.63541C12.1412 8.86666 12.2098 9.1084 12.2376 9.36062C12.2514 9.46104 12.2138 9.53076 12.1246 9.56979C12.0355 9.60868 11.9519 9.58917 11.8738 9.51125L10.0855 7.73083C10.0074 7.65278 9.99005 7.56916 10.0334 7.48C10.0766 7.39083 10.1484 7.34625 10.2488 7.34625C10.5181 7.36861 10.7665 7.43618 10.994 7.54896C11.2216 7.66159 11.4284 7.81514 11.6142 8.00958Z" fill="#6A6A6A"/>
</g>
</svg>
